<?xml version="1.0" standalone="no"?>
<!DOCTYPE svg PUBLIC "-//W3C//DTD SVG 20010904//EN"
 "http://www.w3.org/TR/2001/REC-SVG-20010904/DTD/svg10.dtd">
<svg version="1.0" xmlns="http://www.w3.org/2000/svg"
 width="393.000000pt" height="553.000000pt" viewBox="0 0 393.000000 553.000000"
 preserveAspectRatio="xMidYMid meet">

<g transform="translate(0.000000,553.000000) scale(0.100000,-0.100000)"
fill="#000000" stroke="none">
<path d="M2391 5487 c-15 -28 -7 -327 10 -358 12 -23 35 -20 33 5 -3 26 52 59
87 52 18 -3 29 -1 29 5 0 6 9 9 20 6 13 -3 20 0 20 9 0 17 17 18 23 2 3 -7 6
-1 6 14 1 31 -35 76 -64 80 -11 2 -23 7 -27 13 -4 5 -11 6 -15 1 -4 -5 -2 -11
5 -13 20 -8 14 -26 -8 -20 -10 3 -25 -2 -31 -10 -10 -11 -10 -13 1 -11 8 2 14
-5 15 -17 0 -10 11 -25 25 -33 l25 -14 -28 6 c-31 7 -83 -25 -97 -59 -8 -18
-9 -17 -9 7 -1 14 4 28 11 30 8 3 4 12 -10 26 -12 12 -22 28 -22 34 0 7 7 2
16 -10 8 -12 20 -19 26 -16 6 4 14 1 18 -5 4 -7 7 2 8 21 0 18 -6 43 -14 56
-13 20 -13 23 0 28 15 6 16 49 2 72 -9 16 -36 3 -46 -22 -8 -20 -9 -19 -9 5
-1 27 20 54 32 42 4 -3 7 -1 7 5 0 7 -6 12 -14 12 -16 0 -28 37 -15 46 5 3 9
-2 9 -11 0 -8 11 -21 25 -27 16 -7 21 -14 14 -18 -8 -6 -8 -9 0 -14 6 -4 11
-2 11 3 0 6 5 11 11 11 6 0 8 -7 5 -16 -6 -15 -4 -15 18 0 14 9 33 16 43 16
11 0 4 -7 -16 -18 -19 -9 -37 -23 -39 -31 -3 -8 0 -11 6 -7 6 4 8 -2 4 -16 -5
-20 -3 -21 11 -10 9 8 14 19 11 26 -4 12 33 26 67 26 17 0 9 -32 -13 -50 l-22
-17 39 -19 c23 -11 42 -29 49 -46 13 -35 17 -35 38 2 12 21 25 30 43 30 14 0
28 6 31 14 3 8 15 11 32 8 24 -5 25 -3 14 11 -8 9 -21 13 -29 10 -12 -5 -14
-3 -8 7 6 10 0 12 -28 7 -33 -5 -39 -2 -59 25 -15 22 -23 27 -26 17 -10 -29
-44 -69 -59 -69 -14 0 -13 4 4 23 11 12 24 33 28 46 6 19 4 23 -9 18 -8 -3
-23 1 -32 11 -12 11 -31 16 -59 15 -49 -2 -100 30 -75 47 13 8 12 10 -2 10
-10 0 -18 5 -18 10 0 18 -16 11 -29 -13z m39 -162 c-9 -17 -9 -28 -1 -43 14
-26 14 -42 1 -42 -5 0 -7 7 -4 15 4 8 -1 17 -10 21 -20 8 -21 50 -2 57 9 4 13
14 10 29 -5 21 -4 21 6 4 10 -14 9 -23 0 -41z m263 -2 c12 -7 -24 -43 -43 -43
-23 0 -44 26 -36 46 5 12 14 14 38 9 18 -4 37 -10 41 -12z m37 -9 c0 -8 -4
-12 -10 -9 -5 3 -10 10 -10 16 0 5 5 9 10 9 6 0 10 -7 10 -16z m-145 -38 c28
-20 12 -46 -29 -46 -43 0 -50 10 -28 38 20 25 31 27 57 8z"/>
<path d="M865 5481 c-3 -6 -2 -11 4 -11 18 0 1 -25 -29 -42 -26 -15 -32 -15
-44 -2 -19 18 -36 18 -36 -1 0 -18 -12 -19 -27 -4 -8 8 -13 7 -18 -1 -4 -7 -2
-16 5 -20 8 -5 8 -9 -4 -13 -9 -4 -15 -2 -13 2 1 5 -2 11 -8 13 -18 6 -15 -27
5 -59 11 -18 25 -33 31 -33 7 0 5 8 -5 19 -24 26 -13 41 29 39 39 -1 40 -3 20
-38 -17 -29 -19 -44 -6 -36 5 4 11 0 14 -6 9 -24 36 26 34 62 -2 30 3 39 35
63 21 16 38 35 38 43 0 8 5 14 10 14 15 0 12 -36 -5 -50 -8 -7 -15 -17 -15
-22 0 -5 -7 -16 -15 -24 -17 -17 -20 -60 -5 -69 7 -4 6 -13 -1 -26 -14 -27 -8
-95 9 -91 6 1 12 -7 12 -18 0 -11 7 -20 15 -20 10 0 15 -10 15 -30 0 -16 -4
-30 -10 -30 -5 0 -10 9 -10 20 0 26 -28 70 -45 70 -19 0 -26 27 -15 56 9 21 8
25 -4 21 -8 -3 -17 -1 -19 6 -3 7 -8 0 -12 -16 -8 -28 -41 -44 -70 -33 -13 4
-14 10 -5 26 6 11 15 20 20 20 6 0 10 8 10 17 0 14 -5 12 -26 -10 -30 -33 -48
-87 -34 -101 7 -7 10 -3 10 10 0 17 2 16 20 -6 13 -17 20 -20 20 -10 1 11 4
10 16 -5 15 -20 15 -20 30 0 13 18 17 19 41 5 28 -16 37 -29 53 -74 10 -27 12
-28 26 -14 15 15 29 114 23 163 -2 22 -3 89 0 120 0 11 -2 45 -7 75 -6 46 -11
56 -29 58 -11 2 -24 -2 -28 -7z m-65 -87 c0 -2 -7 -4 -15 -4 -8 0 -15 4 -15
10 0 5 7 7 15 4 8 -4 15 -8 15 -10z m114 -10 c11 -28 6 -39 -9 -20 -8 11 -15
23 -15 28 0 14 18 9 24 -8z m-18 -64 c8 0 14 -10 14 -25 0 -14 -4 -25 -10 -25
-5 0 -10 9 -10 19 0 11 -4 23 -10 26 -5 3 -9 16 -9 28 2 22 2 22 6 0 2 -13 11
-23 19 -23z m-96 -10 c0 -5 -4 -10 -10 -10 -5 0 -10 5 -10 10 0 6 5 10 10 10
6 0 10 -4 10 -10z m77 -72 c-3 -8 -6 -5 -6 6 -1 11 2 17 5 13 3 -3 4 -12 1
-19z m33 -35 c-11 -17 -11 -17 -6 0 3 10 6 24 7 30 0 9 2 9 5 0 3 -7 0 -20 -6
-30z"/>
<path d="M2041 5465 c-19 -17 -28 -31 -22 -34 6 -4 -16 -34 -53 -70 l-63 -62
-74 50 c-41 28 -81 63 -90 78 -17 31 -49 43 -49 19 0 -35 26 -66 97 -112 41
-27 79 -54 84 -60 6 -8 3 -29 -11 -63 -26 -67 -26 -70 14 -86 30 -13 41 -13
85 1 27 8 53 19 56 24 4 6 12 7 18 3 17 -11 96 -12 103 -2 3 5 13 5 24 -1 13
-7 24 -5 39 8 19 15 22 29 25 127 3 109 -7 171 -26 159 -6 -4 -7 -53 -3 -135
7 -114 6 -129 -8 -129 -9 0 -19 4 -22 10 -4 6 -14 5 -27 -3 -16 -9 -22 -9 -25
0 -3 10 -10 9 -26 -2 -14 -9 -28 -11 -36 -6 -8 6 -29 2 -55 -10 -63 -29 -126
-24 -126 10 0 9 13 22 31 28 30 12 31 15 25 51 -6 38 -3 42 49 91 66 63 108
116 103 132 -2 7 -17 0 -37 -16z"/>
<path d="M1110 5429 c-30 -26 -50 -48 -45 -48 13 -1 111 86 105 92 -3 3 -30
-17 -60 -44z"/>
<path d="M1208 5463 c-2 -10 0 -38 4 -63 4 -25 7 -64 7 -87 1 -38 -3 -45 -36
-68 -47 -31 -137 -36 -151 -7 -10 19 -8 84 3 101 3 6 -1 11 -9 11 -10 0 -13 6
-9 18 6 15 5 15 -10 3 -21 -17 -22 -47 -1 -59 13 -7 14 -15 6 -43 -13 -50 0
-77 42 -85 45 -8 81 1 127 31 l37 24 7 -32 c3 -18 9 -49 12 -70 6 -46 23 -59
23 -18 0 17 5 31 10 31 6 0 10 -9 10 -19 0 -25 17 -36 35 -21 10 8 15 8 20 -1
6 -8 10 -7 17 5 12 21 1 38 -20 32 -10 -3 -24 -1 -32 4 -12 8 -11 10 7 10 12
0 24 4 28 10 4 6 15 6 30 0 29 -11 51 -5 60 18 5 14 8 12 18 -8 17 -33 70 -38
115 -10 17 11 32 24 32 30 0 13 -3 13 -33 -1 -18 -8 -30 -8 -46 0 -30 16 -26
30 9 38 36 7 40 23 6 23 -14 0 -33 -11 -44 -25 l-20 -25 -5 23 c-3 12 -7 55
-8 95 -2 71 -1 74 26 92 27 18 53 50 40 50 -4 0 -21 -11 -40 -25 l-33 -26 -7
33 c-8 33 -8 33 -17 8 -5 -14 -7 -32 -5 -42 3 -11 -8 -27 -32 -45 -38 -28 -53
-45 -46 -51 2 -3 22 10 44 27 l39 31 7 -66 c8 -74 -4 -114 -34 -114 -11 0 -21
5 -23 12 -3 8 -11 7 -28 -5 -33 -23 -77 -22 -90 2 -5 11 -10 46 -10 78 0 131
-20 237 -32 176z"/>
<path d="M1299 5459 c-21 -21 -21 -22 -4 -32 15 -8 22 -5 37 13 31 39 3 55
-33 19z"/>
<path d="M1555 5470 c-4 -6 -2 -17 4 -24 6 -7 9 -22 5 -32 -5 -18 -4 -17 11 1
17 22 17 56 -2 62 -6 2 -14 -1 -18 -7z"/>
<path d="M1854 5415 c0 -25 5 -45 9 -45 14 0 97 60 97 71 0 5 -20 -4 -44 -21
l-45 -30 6 35 c4 27 2 35 -9 35 -12 0 -15 -11 -14 -45z"/>
<path d="M2246 5433 c-3 -10 -2 -63 3 -118 4 -56 3 -115 -2 -133 -10 -41 -3
-52 13 -21 8 14 12 61 11 123 0 69 2 96 9 86 14 -22 13 22 -2 55 -13 29 -25
32 -32 8z"/>
<path d="M1569 5381 c-70 -64 -61 -74 11 -11 30 27 52 52 48 55 -3 3 -30 -16
-59 -44z"/>
<path d="M2121 5386 c-6 -8 -36 -29 -66 -47 -41 -25 -55 -40 -55 -57 0 -15 5
-22 13 -19 6 2 12 10 12 18 0 8 28 36 63 62 34 26 62 50 62 52 0 10 -18 4 -29
-9z"/>
<path d="M1131 5366 c-13 -15 -7 -56 9 -56 13 0 20 29 12 51 -7 18 -10 19 -21
5z"/>
<path d="M633 5338 c-27 -38 -20 -54 7 -18 l19 25 -6 -25 c-6 -22 -4 -23 9
-12 22 18 44 -9 29 -36 -15 -28 -59 -17 -80 19 -17 31 -26 35 -36 19 -3 -5
-17 -10 -31 -10 -13 0 -24 -4 -24 -10 0 -5 9 -10 21 -10 12 0 17 -4 13 -11 -4
-7 5 -10 27 -7 30 3 36 -1 54 -34 22 -42 35 -48 35 -18 0 10 14 35 30 54 29
32 30 35 11 41 -11 3 -26 19 -33 35 -7 17 -15 30 -18 30 -3 0 -15 -15 -27 -32z"/>
<path d="M1710 5313 c0 -15 -10 -37 -22 -50 -12 -13 -17 -23 -11 -23 16 0 71
73 66 88 -9 23 -33 13 -33 -15z"/>
<path d="M2820 5330 c0 -6 75 -10 204 -10 126 0 207 4 211 10 4 7 -67 10 -204
10 -134 0 -211 -4 -211 -10z"/>
<path d="M2118 5315 c-3 -4 -14 -8 -25 -9 -10 -2 -18 -9 -18 -17 0 -8 8 -13
20 -11 25 5 38 17 33 32 -2 6 -6 8 -10 5z"/>
<path d="M210 5300 c-20 -4 37 -8 128 -9 105 -1 162 3 162 9 0 12 -231 11
-290 0z"/>
<path d="M1605 5290 c-8 -26 -1 -35 20 -26 18 7 17 37 -2 43 -6 2 -14 -5 -18
-17z"/>
<path d="M138 5293 c7 -3 16 -2 19 1 4 3 -2 6 -13 5 -11 0 -14 -3 -6 -6z"/>
<path d="M1758 5235 c-18 -41 -148 -98 -148 -65 0 6 7 22 16 36 27 41 9 38
-20 -4 -31 -46 -32 -58 -6 -72 17 -9 33 -5 86 21 36 17 66 30 68 28 2 -2 8
-13 14 -24 11 -20 11 -20 12 0 0 11 9 28 20 38 25 21 26 43 1 57 -27 14 -30
13 -43 -15z"/>
<path d="M1136 5161 c-20 -37 -20 -51 -2 -51 19 0 33 23 18 28 -9 3 -9 9 -1
24 6 11 8 22 6 25 -3 3 -13 -9 -21 -26z"/>
<path d="M1025 5160 c-4 -6 -1 -17 5 -25 6 -8 9 -19 5 -25 -3 -5 -2 -10 3 -10
12 0 25 47 17 60 -8 13 -22 13 -30 0z"/>
<path d="M635 4930 c-16 -17 -24 -30 -19 -30 13 0 59 48 52 55 -2 3 -17 -9
-33 -25z"/>
<path d="M811 4916 c-14 -26 -8 -46 14 -46 18 0 38 37 31 56 -8 22 -31 17 -45
-10z"/>
<path d="M3765 4910 c-16 -17 -24 -30 -19 -30 13 0 59 48 52 55 -2 3 -17 -9
-33 -25z"/>
<path d="M654 4899 c-15 -17 -16 -23 -6 -40 9 -13 9 -25 3 -38 -8 -14 -6 -23
9 -36 11 -10 23 -15 26 -12 4 3 18 -8 32 -25 25 -29 25 -31 7 -44 -10 -8 -22
-14 -26 -14 -4 0 -9 -7 -13 -15 -4 -12 3 -15 34 -15 44 0 42 -6 58 115 5 39 6
78 3 88 -12 33 -34 -7 -29 -53 2 -22 1 -40 -2 -40 -14 1 -82 74 -72 78 7 2 17
13 23 24 10 18 8 19 -13 13 -20 -7 -21 -6 -10 8 20 23 -3 30 -24 6z"/>
<path d="M3240 4895 c-13 -14 -19 -25 -13 -25 5 0 20 11 33 25 13 14 19 25 13
25 -5 0 -20 -11 -33 -25z"/>
<path d="M2825 4875 c-22 -18 -37 -36 -34 -39 3 -3 23 9 45 28 21 19 37 36 34
39 -3 3 -23 -9 -45 -28z"/>
<path d="M289 4887 c-1 -1 -3 -19 -4 -40 -1 -27 1 -35 8 -28 6 6 26 11 43 11
53 0 103 25 104 51 0 4 -20 -1 -45 -10 -42 -15 -48 -15 -75 1 -17 9 -31 16
-31 15z"/>
<path d="M2439 4861 c-17 -18 -28 -35 -25 -38 4 -4 21 7 38 25 18 17 29 34 25
38 -3 3 -20 -8 -38 -25z"/>
<path d="M3114 4869 c-14 -15 -15 -22 -6 -28 9 -6 5 -15 -14 -34 -15 -15 -22
-27 -17 -27 15 0 73 65 73 82 0 26 -16 29 -36 7z"/>
<path d="M3606 4863 c-26 -19 -33 -29 -23 -31 10 -2 13 -10 9 -24 -4 -18 -2
-19 19 -13 28 9 49 24 49 36 0 5 -11 4 -24 -1 -29 -11 -30 8 -1 40 25 27 17
25 -29 -7z"/>
<path d="M2544 4812 c8 -82 0 -93 -74 -100 -67 -6 -100 3 -100 29 0 11 -4 17
-10 14 -14 -9 -13 -48 2 -63 19 -19 119 -15 161 7 20 10 37 15 37 10 0 -30
290 -38 325 -9 9 7 15 8 15 2 0 -17 26 -21 69 -10 24 6 41 16 41 25 0 9 -6 12
-18 9 -10 -4 -27 1 -38 10 -18 15 -18 15 9 11 30 -5 32 10 3 27 -13 9 -21 6
-36 -14 l-19 -25 -3 60 c-2 34 -7 59 -13 57 -6 -1 -9 -30 -6 -67 l3 -65 -43
-1 c-192 -7 -251 -3 -265 16 -8 10 -14 33 -14 51 0 47 -11 94 -23 94 -6 0 -7
-25 -3 -68z"/>
<path d="M2950 4845 c-25 -26 -21 -32 9 -15 20 10 36 40 22 40 -4 0 -18 -11
-31 -25z"/>
<path d="M3296 4863 c-3 -3 -6 -22 -6 -42 0 -56 -15 -70 -29 -28 -7 19 -20 42
-30 51 -15 14 -20 14 -30 3 -13 -17 -5 -47 13 -47 12 0 36 -40 36 -60 0 -5
-16 -14 -35 -20 -41 -13 -46 -30 -10 -30 13 0 40 14 59 30 l35 31 3 -28 c3
-26 7 -28 78 -40 59 -10 87 -10 130 -1 30 7 82 12 115 13 143 2 151 9 131 109
l-12 60 -17 -42 c-9 -23 -17 -50 -17 -59 0 -14 2 -14 15 3 14 18 14 18 15 -9
0 -21 -4 -28 -17 -26 -10 1 -22 0 -28 -1 -5 -2 -37 -4 -70 -6 -33 -1 -78 -6
-100 -11 -42 -9 -184 2 -197 15 -4 4 -8 35 -9 70 -2 60 -9 79 -23 65z"/>
<path d="M3787 4856 c-4 -11 -4 -47 -1 -80 7 -60 8 -60 15 -24 10 44 -3 134
-14 104z"/>
<path d="M218 4855 c-3 -6 -3 -47 0 -93 4 -69 8 -84 24 -93 30 -16 157 -22
208 -11 24 6 49 7 55 3 18 -15 108 -4 122 15 16 21 17 41 3 49 -5 3 -10 -3
-10 -15 0 -34 -34 -21 -40 15 -7 38 -25 34 -24 -5 2 -25 -2 -30 -22 -30 -13 0
-24 4 -24 9 0 5 -19 3 -42 -3 -46 -14 -163 -11 -203 4 -20 8 -24 18 -30 77 -8
82 -10 90 -17 78z"/>
<path d="M550 4841 c-14 -27 -13 -51 3 -51 20 0 37 22 37 47 0 28 -25 31 -40
4z"/>
<path d="M1557 4823 c-20 -20 -35 -39 -32 -42 3 -3 22 12 42 32 21 20 35 39
32 42 -3 3 -22 -11 -42 -32z"/>
<path d="M1953 4846 c-5 -7 -23 -21 -40 -31 -33 -19 -43 -35 -22 -35 5 0 8 -4
4 -9 -3 -6 -7 -30 -9 -54 -3 -42 -2 -45 41 -71 l44 -26 45 32 c42 30 55 60 44
103 -2 6 -3 17 -2 25 1 22 -96 82 -105 66z m61 -66 c21 -8 26 -16 26 -44 0
-26 -5 -35 -22 -41 -70 -21 -108 -7 -108 42 0 27 4 34 28 39 23 5 41 10 49 13
1 1 13 -3 27 -9z"/>
<path d="M806 4842 c-4 -7 -4 -42 0 -78 7 -74 24 -69 23 6 -1 54 -12 89 -23
72z"/>
<path d="M372 4800 c-23 -17 -42 -35 -42 -40 0 -14 77 38 84 56 7 19 5 18 -42
-16z"/>
<path d="M2459 4808 c-9 -17 -9 -24 3 -32 8 -6 13 -18 11 -26 -3 -10 1 -8 11
4 19 23 21 46 5 46 -6 0 -9 7 -5 15 9 23 -12 18 -25 -7z"/>
<path d="M2665 4820 c-3 -6 -3 -20 1 -32 l7 -22 18 23 c11 13 19 27 19 32 0
12 -37 11 -45 -1z"/>
<path d="M1130 4788 c-59 -45 -64 -69 -7 -29 47 32 63 49 54 57 -2 3 -24 -10
-47 -28z"/>
<path d="M1406 4804 c-3 -9 -2 -23 3 -31 7 -13 11 -12 25 8 9 13 16 27 16 31
0 15 -38 8 -44 -8z"/>
<path d="M1565 4780 c-4 -6 -3 -16 3 -22 6 -6 12 -6 17 2 4 6 3 16 -3 22 -6 6
-12 6 -17 -2z"/>
<path d="M597 4765 c-8 -19 13 -31 23 -14 9 14 4 29 -10 29 -4 0 -10 -7 -13
-15z"/>
<path d="M112 4726 c-10 -28 -10 -39 0 -55 9 -15 15 -17 25 -9 21 17 15 -7 -7
-27 -11 -10 -20 -25 -20 -33 0 -31 54 49 57 83 1 20 -2 33 -7 30 -5 -3 -10 5
-12 17 -5 34 -23 31 -36 -6z"/>
<path d="M3125 4746 c-11 -6 -23 -15 -27 -21 -9 -12 -10 -81 -1 -113 10 -39
21 -5 12 41 -9 52 -4 61 32 53 31 -6 42 4 33 27 -8 22 -26 26 -49 13z"/>
<path d="M1419 4738 c-1 -7 0 -19 1 -27 1 -12 -4 -11 -24 3 -23 14 -27 15 -32
2 -3 -8 -1 -23 5 -34 8 -16 5 -21 -24 -35 -57 -27 -194 -40 -286 -28 -83 11
-161 46 -173 78 -5 12 -9 14 -18 5 -34 -34 56 -97 167 -118 52 -10 26 -12
-199 -13 -226 -1 -257 1 -252 14 3 8 1 15 -5 15 -5 0 -12 -7 -15 -15 -5 -13
-43 -15 -256 -15 -194 0 -249 -3 -246 -12 4 -10 391 -14 1851 -16 1687 -4
1847 -3 1847 12 0 15 -117 16 -1307 17 -781 1 -1281 5 -1241 10 90 12 161 39
173 67 5 12 17 22 26 22 23 0 41 25 37 51 -3 25 -27 39 -29 17z"/>
<path d="M1166 4725 c-7 -20 23 -33 34 -14 5 7 6 17 4 21 -9 13 -32 9 -38 -7z"/>
<path d="M1541 4685 c-44 -40 -55 -44 -46 -14 9 29 -13 15 -24 -14 -5 -12 -14
-22 -22 -23 -8 0 -24 -2 -36 -2 -13 -1 -23 -8 -23 -16 0 -23 16 -27 47 -14 15
6 34 10 41 9 7 -1 33 16 58 39 24 22 49 38 55 34 12 -7 31 15 23 28 -10 16
-35 7 -73 -27z"/>
<path d="M2710 4641 c0 -15 6 -19 28 -18 16 2 27 8 27 17 0 9 -11 16 -27 18
-22 3 -28 -1 -28 -17z"/>
<path d="M320 4617 c0 -14 5 -18 20 -14 11 3 23 1 26 -5 4 -6 9 -6 14 3 13 21
1 36 -30 36 -23 0 -30 -5 -30 -20z"/>
<path d="M530 4611 c0 -12 6 -21 16 -21 9 0 14 7 12 17 -5 25 -28 28 -28 4z"/>
<path d="M665 4470 c-16 -17 -24 -30 -19 -30 13 0 59 48 52 55 -2 3 -17 -9
-33 -25z"/>
<path d="M1551 4459 c-19 -16 -32 -31 -29 -35 3 -3 21 8 40 24 43 39 33 49
-11 11z"/>
<path d="M572 4458 c-14 -14 -16 -32 -2 -23 6 3 7 -1 4 -9 -3 -9 -1 -16 5 -16
11 0 31 31 31 49 0 15 -23 14 -38 -1z"/>
<path d="M847 4452 c-22 -24 -21 -42 1 -42 23 0 42 19 42 42 0 23 -22 23 -43
0z"/>
<path d="M684 4434 c-4 -17 -2 -29 7 -35 11 -7 9 -10 -8 -15 -38 -11 -37 -52
3 -58 10 -2 27 -15 39 -30 20 -28 20 -28 0 -41 -54 -38 -55 -55 -4 -55 33 0
41 14 54 95 16 101 13 134 -10 115 -8 -7 -11 -26 -7 -56 l5 -45 -32 32 -32 32
21 22 c13 14 17 25 11 29 -5 4 -8 13 -4 21 3 10 -1 15 -16 15 -14 0 -23 -8
-27 -26z"/>
<path d="M2808 4425 c-45 -38 -49 -53 -10 -29 27 15 58 52 50 59 -2 2 -20 -12
-40 -30z"/>
<path d="M3255 4430 c-16 -16 -26 -32 -24 -34 5 -5 69 51 69 60 0 12 -19 1
-45 -26z"/>
<path d="M1442 4438 c-17 -17 -15 -29 3 -22 11 5 14 1 9 -12 -4 -15 -1 -14 15
5 12 13 21 27 21 32 0 13 -34 11 -48 -3z"/>
<path d="M2424 4426 c-38 -32 -27 -42 11 -11 17 13 27 26 24 30 -4 3 -20 -5
-35 -19z"/>
<path d="M1291 4392 c-30 -20 -57 -43 -59 -50 -4 -13 112 60 123 78 12 19 -10
10 -64 -28z"/>
<path d="M1562 4418 c-7 -7 -12 -25 -12 -40 0 -24 3 -27 18 -19 15 8 17 3 14
-57 -2 -44 1 -62 7 -52 12 19 21 161 9 154 -4 -3 -8 2 -8 10 0 19 -11 21 -28
4z"/>
<path d="M3623 4405 c-34 -21 -50 -45 -30 -45 16 1 69 48 65 58 -2 4 -17 -1
-35 -13z"/>
<path d="M3104 4406 c-3 -9 -4 -23 -1 -31 4 -8 -5 -22 -21 -34 -15 -11 -24
-23 -20 -27 11 -10 80 66 76 84 -4 22 -27 27 -34 8z"/>
<path d="M2494 4361 c7 -55 0 -65 -52 -75 -43 -8 -76 9 -69 35 3 10 1 19 -3
19 -5 0 -12 -14 -15 -32 -12 -54 38 -74 110 -44 19 8 35 11 35 6 0 -37 193
-56 252 -26 18 10 30 11 34 4 4 -5 19 -7 35 -4 17 3 29 1 32 -7 6 -18 95 -12
118 9 27 25 24 31 -16 26 -21 -3 -35 0 -35 7 0 6 7 11 16 11 20 0 13 24 -9 28
-10 2 -24 -10 -36 -29 -20 -32 -20 -32 -25 -8 -3 13 -7 42 -8 64 -4 48 -22 45
-25 -5 -1 -19 -2 -40 -2 -47 -1 -7 -13 -12 -28 -12 -16 1 -48 -4 -73 -10 -89
-20 -202 -5 -207 29 -1 8 -5 36 -8 63 -3 26 -11 47 -17 47 -7 0 -8 -17 -4 -49z"/>
<path d="M2938 4393 c-8 -10 -18 -24 -22 -30 -12 -22 18 -4 37 22 20 28 8 34
-15 8z"/>
<path d="M218 4390 c-1 -5 -2 -46 0 -90 3 -77 4 -80 30 -87 38 -11 172 -7 203
5 18 7 30 7 36 1 6 -6 35 -8 72 -3 53 6 64 10 71 30 10 26 4 54 -12 54 -6 0
-8 -11 -6 -25 4 -17 1 -25 -8 -25 -8 0 -14 9 -14 20 0 28 -25 25 -48 -7 -17
-23 -22 -25 -36 -14 -11 10 -23 10 -48 2 -18 -5 -51 -11 -73 -11 -80 -3 -82
-2 -37 31 23 17 42 35 42 40 0 14 -31 -4 -69 -40 -57 -53 -81 -36 -81 55 0 55
-12 92 -22 64z"/>
<path d="M276 4392 c-3 -6 -1 -22 5 -35 10 -22 15 -24 48 -16 20 5 45 9 56 9
17 0 17 -2 5 -10 -13 -8 -13 -10 1 -10 15 0 38 20 52 46 5 8 -13 11 -56 11
-34 -1 -72 3 -83 7 -13 4 -24 4 -28 -2z"/>
<path d="M817 4393 c-9 -14 -5 -143 5 -143 3 0 9 17 12 38 6 43 -6 122 -17
105z"/>
<path d="M3316 4393 c-3 -3 -6 -24 -6 -45 0 -44 -24 -53 -34 -13 -9 35 -42 51
-55 26 -8 -14 -7 -22 4 -31 8 -7 15 -9 16 -4 0 5 4 -2 10 -14 11 -29 5 -40
-27 -52 -13 -5 -24 -14 -24 -20 0 -19 49 -10 79 16 17 14 31 21 31 15 0 -6 9
-20 20 -31 17 -17 33 -20 98 -20 42 1 95 7 117 15 25 9 42 11 45 4 4 -5 37 -7
81 -4 89 7 99 16 99 97 0 61 -14 76 -30 32 -13 -33 -13 -67 0 -59 6 3 10 -1
10 -10 0 -9 -7 -16 -17 -14 -10 1 -22 0 -28 -1 -5 -2 -39 -4 -75 -6 -36 -2
-96 -8 -135 -14 -53 -9 -80 -9 -112 -1 l-43 12 0 59 c0 55 -9 78 -24 63z"/>
<path d="M3808 4394 c-5 -4 -8 -37 -8 -73 0 -45 3 -62 11 -54 5 5 9 38 7 72
-2 35 -6 59 -10 55z"/>
<path d="M575 4380 c-10 -16 4 -30 28 -26 32 5 35 36 3 36 -14 0 -28 -4 -31
-10z"/>
<path d="M2418 4383 c-4 -22 -2 -73 3 -73 11 0 28 50 23 65 -6 16 -23 21 -26
8z"/>
<path d="M1470 4373 c-42 -13 -43 -13 -31 -27 14 -17 58 -18 65 0 6 16 -14 33
-34 27z"/>
<path d="M2619 4354 c-9 -26 -5 -44 10 -44 5 0 20 15 34 33 l26 34 -30 1 c-23
0 -32 -5 -40 -24z"/>
<path d="M1334 4358 c-10 -16 17 -40 31 -28 10 8 15 8 20 -1 6 -8 10 -8 16 2
4 7 4 19 -2 25 -11 14 -57 15 -65 2z"/>
<path d="M3649 4362 c-24 -3 -45 -33 -33 -45 11 -11 54 7 60 25 7 24 6 24 -27
20z"/>
<path d="M515 4339 c-10 -15 5 -29 30 -29 26 0 37 11 27 26 -9 13 -50 15 -57
3z"/>
<path d="M1936 4319 c-18 -30 -18 -31 0 -27 12 2 19 13 21 31 1 15 1 27 0 27
-2 0 -11 -14 -21 -31z"/>
<path d="M1499 4310 c-1 -8 -2 -24 -3 -35 -2 -30 -32 -31 -40 -1 -4 15 -13 26
-21 26 -15 0 -50 -58 -41 -67 3 -3 1 -14 -4 -24 -8 -13 -6 -19 8 -22 33 -8
-33 -26 -130 -35 -114 -12 -201 -1 -268 33 -65 33 -81 32 -45 -4 37 -36 139
-71 204 -71 79 0 202 20 249 40 32 15 42 24 42 42 0 18 8 26 32 33 42 13 61
57 35 82 -14 14 -17 15 -18 3z"/>
<path d="M120 4281 c-9 -23 -9 -33 1 -50 l13 -20 23 21 c30 28 32 53 2 38 -18
-10 -19 -10 -10 8 10 18 6 32 -9 32 -4 0 -13 -13 -20 -29z"/>
<path d="M3107 4270 c-20 -23 -25 -39 -22 -68 1 -20 4 -44 4 -52 1 -12 4 -11
12 3 6 9 9 25 8 35 -4 47 0 55 30 49 38 -8 47 14 17 42 l-23 22 -26 -31z"/>
<path d="M1916 4264 c-6 -17 20 -39 29 -24 3 6 11 7 17 4 6 -4 5 -9 -3 -15 -8
-4 -14 -22 -15 -39 l-2 -32 20 32 c10 18 21 45 25 60 5 27 3 28 -31 27 -19 0
-37 -6 -40 -13z"/>
<path d="M2662 4209 c-31 -12 -23 -34 12 -34 31 -1 39 6 30 29 -7 18 -10 18
-42 5z"/>
<path d="M133 4188 c-37 -42 -37 -54 0 -19 21 19 37 36 37 38 0 10 -19 0 -37
-19z"/>
<path d="M535 4176 c-16 -13 -27 -27 -23 -31 3 -3 21 7 40 24 39 36 26 41 -17
7z"/>
<path d="M322 4182 c-33 -5 -25 -38 8 -34 14 2 29 7 33 11 12 12 -15 27 -41
23z"/>
<path d="M803 4018 c-24 -16 -43 -33 -43 -39 0 -12 14 -11 27 2 9 9 11 7 6 -9
-2 -11 -1 -28 4 -37 8 -14 12 -14 36 5 30 24 36 43 10 33 -12 -5 -15 -2 -10
10 4 10 2 17 -5 17 -6 0 -3 9 7 20 29 32 14 31 -32 -2z"/>
<path d="M2387 3984 c-46 -36 -64 -64 -29 -45 28 15 98 80 86 81 -6 0 -32 -16
-57 -36z"/>
<path d="M3337 3989 c-29 -24 -37 -38 -37 -64 0 -18 7 -38 15 -45 8 -7 15 -23
15 -35 0 -18 -8 -26 -35 -35 -19 -6 -33 -16 -30 -21 11 -17 52 -9 89 16 20 13
36 20 36 15 0 -6 9 -19 20 -30 16 -16 33 -20 83 -20 34 0 69 4 77 10 9 5 19 5
26 0 6 -6 31 -7 55 -4 24 2 56 5 71 4 17 0 31 7 38 20 13 24 9 125 -5 125 -14
0 -27 -76 -15 -90 7 -9 7 -15 1 -19 -5 -4 -13 -2 -16 4 -4 7 -11 8 -18 2 -7
-5 -39 -10 -72 -10 -33 -1 -82 -4 -110 -7 -28 -4 -62 -2 -77 4 -26 10 -28 15
-28 63 0 59 -13 92 -24 63 -3 -9 -6 -29 -6 -44 0 -24 -25 -61 -41 -61 -3 0 -3
15 -1 33 2 22 -3 41 -16 57 l-20 25 37 31 c47 41 36 53 -12 13z"/>
<path d="M271 3998 c0 -10 -7 -17 -13 -15 -9 1 -16 -25 -22 -87 l-9 -89 28
-24 c28 -25 29 -25 229 -21 l200 3 6 -25 c6 -24 7 -25 14 -3 5 15 18 23 47 28
62 11 87 44 49 65 -22 12 -45 3 -75 -26 -11 -12 -19 -14 -27 -6 -6 6 -26 8
-45 5 -33 -6 -34 -5 -27 21 5 20 2 26 -9 26 -22 0 -32 -20 -16 -32 11 -8 10
-9 -3 -5 -9 3 -22 -1 -29 -9 -8 -10 -15 -11 -24 -4 -7 6 -23 6 -46 0 -52 -15
-175 -12 -216 5 l-36 15 6 66 c4 37 11 72 18 80 6 7 9 21 6 31 -4 17 -5 17 -6
1z"/>
<path d="M1022 3993 c-13 -25 -15 -203 -2 -183 5 8 10 41 10 73 0 38 5 64 15
73 19 20 19 54 0 54 -8 0 -18 -8 -23 -17z"/>
<path d="M296 3991 c-3 -4 -2 -25 1 -46 5 -29 8 -34 15 -21 6 12 24 16 62 16
39 0 58 5 74 20 29 27 28 46 0 26 -24 -17 -118 -22 -118 -7 0 12 -28 22 -34
12z"/>
<path d="M2537 3994 c-4 -4 -5 -33 -1 -64 8 -69 -5 -86 -73 -96 -55 -8 -76 2
-84 42 l-6 29 -8 -28 c-4 -17 -3 -38 4 -53 9 -21 17 -24 58 -24 27 0 61 7 77
15 27 15 31 14 53 -7 17 -16 39 -23 83 -26 55 -4 59 -6 62 -30 2 -22 8 -26 33
-26 23 0 30 5 30 20 0 14 -6 18 -24 16 -48 -5 -10 12 47 20 92 15 156 16 175
3 20 -14 78 -5 102 15 24 20 18 26 -19 22 -18 -2 -37 1 -40 7 -5 7 2 11 18 11
16 0 26 6 26 14 0 37 -56 29 -66 -10 -10 -38 -24 -18 -24 34 0 26 -5 54 -10
62 -12 18 -13 11 -14 -57 -1 -60 -9 -72 -37 -55 -15 10 -24 10 -42 0 -14 -9
-63 -13 -138 -13 -136 0 -159 11 -160 74 0 54 -13 114 -22 105z"/>
<path d="M2892 3968 c-19 -16 -31 -32 -28 -36 4 -3 21 8 38 26 41 41 33 49
-10 10z"/>
<path d="M1555 3966 c-16 -13 -27 -27 -23 -31 3 -3 21 7 40 24 39 36 26 41
-17 7z"/>
<path d="M3200 3975 c-7 -8 -10 -22 -6 -30 4 -10 -4 -25 -22 -40 -15 -13 -24
-26 -21 -29 10 -11 90 74 87 91 -4 23 -23 27 -38 8z"/>
<path d="M947 3973 c-4 -3 -7 -29 -7 -56 l0 -50 -27 27 c-43 43 -60 49 -72 27
-8 -14 -6 -22 8 -35 9 -9 24 -16 32 -16 8 0 20 -10 28 -22 12 -19 11 -23 -5
-35 -10 -7 -23 -13 -30 -13 -6 0 -14 -7 -18 -15 -4 -12 4 -15 39 -15 38 0 45
3 49 23 3 12 8 36 11 52 20 90 16 153 -8 128z"/>
<path d="M1235 3945 c-22 -19 -36 -37 -32 -41 4 -5 24 9 44 29 48 47 40 55
-12 12z"/>
<path d="M3025 3949 c-20 -18 -34 -34 -31 -36 6 -7 64 37 70 54 8 20 0 16 -39
-18z"/>
<path d="M3603 3949 c-24 -17 -43 -35 -43 -40 0 -11 10 -6 52 24 15 11 29 26
32 34 7 17 8 17 -41 -18z"/>
<path d="M1433 3933 c-18 -7 -16 -23 2 -23 9 0 12 -6 8 -17 -6 -16 -4 -16 15
1 37 33 21 58 -25 39z"/>
<path d="M1580 3869 c0 -44 4 -68 10 -64 6 3 10 35 10 71 0 36 -4 64 -10 64
-6 0 -10 -30 -10 -71z"/>
<path d="M2432 3905 c1 -40 12 -45 28 -14 14 25 6 49 -14 49 -11 0 -15 -10
-14 -35z"/>
<path d="M1284 3917 c-6 -17 2 -37 16 -37 15 0 19 29 5 40 -12 10 -16 9 -21
-3z"/>
<path d="M2747 3923 c-10 -9 -9 -53 1 -53 14 0 32 23 32 42 0 18 -20 25 -33
11z"/>
<path d="M3798 3918 c-8 -26 4 -141 13 -127 11 18 12 139 0 139 -5 0 -11 -6
-13 -12z"/>
<path d="M393 3887 c-61 -38 -83 -57 -65 -57 15 0 117 64 126 79 11 18 -6 12
-61 -22z"/>
<path d="M670 3894 c-16 -40 5 -57 31 -25 22 27 20 44 -4 49 -11 2 -21 -7 -27
-24z"/>
<path d="M3610 3910 c-28 -7 -34 -33 -8 -38 9 -2 22 6 28 18 14 26 12 28 -20
20z"/>
<path d="M576 3901 c-4 -6 -3 -19 3 -28 9 -17 10 -17 17 0 8 21 -10 45 -20 28z"/>
<path d="M1930 3869 c-13 -22 -6 -54 9 -44 9 5 13 65 5 65 -2 0 -8 -9 -14 -21z"/>
<path d="M3180 3835 c-12 -13 -20 -27 -17 -32 3 -5 -8 -18 -24 -28 -29 -20
-38 -35 -20 -35 5 0 22 11 38 24 15 13 37 25 48 27 13 3 21 14 23 30 4 36 -21
43 -48 14z"/>
<path d="M123 3838 c-17 -22 -23 -47 -13 -53 13 -8 8 -39 -9 -59 -25 -29 -6
-26 28 5 18 16 30 33 27 37 -4 3 -11 0 -16 -8 -5 -8 -12 -12 -15 -8 -3 3 8 16
24 28 32 22 42 46 15 36 -12 -4 -14 -1 -9 14 7 23 -16 28 -32 8z"/>
<path d="M1285 3834 c-10 -11 -14 -25 -11 -40 4 -14 2 -24 -4 -24 -5 0 -10 -7
-10 -15 0 -9 9 -15 23 -15 18 -1 16 -3 -12 -15 -74 -33 -241 -14 -293 33 -16
13 -18 13 -18 0 0 -17 33 -49 70 -68 36 -19 196 -17 240 3 50 22 76 53 61 71
-9 11 -5 14 23 18 44 5 56 0 56 -23 0 -25 12 -24 28 1 8 14 23 20 47 20 35 0
63 29 50 50 -9 15 -61 12 -75 -5 -15 -18 -37 -20 -42 -4 -3 9 -9 9 -25 0 -32
-16 -50 -14 -56 9 -6 24 -30 26 -52 4z"/>
<path d="M1900 3799 c0 -19 33 -36 38 -19 3 8 8 7 18 -1 11 -9 18 -9 26 -1 18
18 -6 36 -47 38 -27 1 -35 -3 -35 -17z"/>
<path d="M1940 3746 c0 -8 -3 -23 -6 -33 -5 -16 -4 -16 10 1 18 22 21 46 6 46
-5 0 -10 -6 -10 -14z"/>
<path d="M574 3726 c-38 -32 -27 -42 11 -11 17 13 27 26 24 30 -4 3 -20 -5
-35 -19z"/>
<path d="M365 3719 c-10 -15 0 -21 39 -24 32 -3 54 14 39 29 -11 10 -71 7 -78
-5z"/>
<path d="M795 3550 c-16 -16 -26 -32 -24 -34 5 -5 69 51 69 60 0 12 -19 1 -45
-26z"/>
<path d="M973 3552 c-15 -10 -34 -58 -25 -66 3 -4 7 -17 7 -29 1 -12 2 -44 3
-72 2 -41 5 -47 13 -31 6 10 9 45 7 77 -3 42 0 63 9 71 14 11 18 58 6 58 -5 0
-13 -4 -20 -8z"/>
<path d="M2850 3525 c-19 -19 -29 -35 -24 -35 6 0 25 16 44 35 19 19 29 35 24
35 -6 0 -25 -16 -44 -35z"/>
<path d="M3256 3520 c-40 -44 -43 -56 -22 -79 8 -9 17 -27 21 -41 5 -22 2 -27
-26 -35 -18 -6 -35 -16 -37 -24 -7 -23 58 -5 88 24 l26 25 14 -25 c8 -14 25
-29 39 -32 26 -7 125 -9 191 -5 19 1 55 2 80 2 25 0 61 0 81 0 20 0 42 7 48
14 17 21 10 131 -8 131 -10 0 -15 -15 -18 -50 -3 -36 -1 -46 7 -35 8 13 10 12
10 -3 0 -13 -7 -18 -22 -17 -13 1 -25 1 -28 0 -16 -8 -97 -7 -107 1 -8 7 -19
6 -34 -2 -27 -14 -118 -17 -171 -6 -40 8 -42 10 -53 100 -6 47 -25 57 -25 12
0 -13 -5 -36 -11 -52 l-11 -28 -13 39 c-7 21 -18 43 -23 48 -6 6 3 22 27 44
20 18 31 34 25 34 -7 0 -28 -18 -48 -40z"/>
<path d="M820 3530 c-6 -11 -8 -30 -5 -41 4 -13 2 -19 -7 -17 -8 2 -13 -7 -13
-22 0 -18 6 -26 23 -28 12 -2 29 -16 37 -32 20 -38 19 -39 -10 -50 -14 -5 -25
-16 -25 -25 0 -22 46 -19 70 5 13 13 20 33 20 58 0 20 7 50 15 65 13 25 13 32
1 49 -19 27 -30 7 -27 -51 l2 -46 -35 34 -36 35 22 23 c12 13 16 23 9 23 -6 0
-11 7 -9 16 5 25 -19 28 -32 4z"/>
<path d="M1559 3520 c-19 -16 -29 -29 -22 -30 15 0 70 47 62 54 -3 3 -21 -8
-40 -24z"/>
<path d="M2388 3522 c-54 -39 -48 -60 7 -22 25 17 45 35 45 40 0 16 -12 11
-52 -18z"/>
<path d="M619 3498 c-33 -17 -61 -39 -68 -54 -14 -32 -14 -34 3 -34 16 0 46
-37 46 -57 0 -14 -30 -6 -42 11 -6 8 -11 7 -17 -2 -19 -31 -272 -40 -307 -11
-9 8 -14 34 -14 80 0 37 -5 71 -10 74 -6 4 -10 -24 -10 -77 0 -124 -1 -123
162 -123 79 0 141 5 152 12 14 7 28 8 48 1 56 -20 79 44 38 103 l-21 28 39 20
c37 19 69 48 61 55 -2 2 -29 -10 -60 -26z"/>
<path d="M1368 3497 c-31 -18 -62 -42 -68 -55 -11 -25 -5 -46 10 -37 5 3 14
-3 19 -14 15 -27 14 -29 -11 -33 -32 -5 -33 -25 -1 -36 l28 -9 -45 -13 c-25
-7 -77 -14 -116 -14 -56 0 -81 5 -122 25 -62 31 -71 15 -17 -27 85 -64 350
-21 320 53 -4 10 -8 32 -9 48 -1 17 -6 37 -10 46 -5 12 4 23 37 42 25 15 47
33 51 42 8 21 0 18 -66 -18z"/>
<path d="M1461 3509 c-7 -13 -8 -19 0 -19 5 0 7 -5 3 -11 -13 -21 19 -4 33 18
12 18 12 21 -5 25 -12 3 -23 -2 -31 -13z"/>
<path d="M2960 3499 c-19 -15 -30 -29 -23 -29 15 0 70 46 63 53 -3 3 -21 -8
-40 -24z"/>
<path d="M3120 3515 c-6 -8 -9 -19 -5 -25 3 -5 -6 -21 -22 -34 -15 -13 -25
-28 -21 -31 11 -12 78 61 78 84 0 24 -12 27 -30 6z"/>
<path d="M3587 3504 c-39 -26 -45 -34 -24 -34 15 1 73 47 66 54 -3 3 -22 -6
-42 -20z"/>
<path d="M2507 3513 c-4 -4 -5 -33 -1 -65 6 -56 6 -58 -20 -68 -62 -23 -127
-3 -112 35 3 8 1 15 -3 15 -5 0 -12 -7 -15 -16 -27 -70 46 -104 131 -62 18 9
27 8 40 -4 27 -24 119 -32 209 -17 43 6 104 11 134 10 95 -2 120 -1 145 9 35
13 32 33 -3 25 -20 -4 -33 -1 -42 10 -11 13 -9 15 9 15 12 0 21 6 21 16 0 24
-43 13 -55 -13 -16 -37 -25 -26 -25 30 0 28 -5 59 -10 67 -11 17 -10 22 -13
-70 -2 -55 -14 -69 -43 -48 -7 5 -22 4 -35 -1 -66 -28 -252 -31 -277 -6 -3 3
-8 33 -10 68 -4 62 -12 84 -25 70z"/>
<path d="M668 3475 c-17 -38 3 -54 31 -24 27 29 27 49 1 49 -12 0 -25 -10 -32
-25z"/>
<path d="M1216 3464 c-22 -19 -37 -37 -33 -40 3 -3 23 10 44 29 49 46 40 55
-11 11z"/>
<path d="M2677 3482 c-23 -25 -21 -42 3 -42 21 0 45 34 35 50 -9 15 -20 12
-38 -8z"/>
<path d="M1588 3474 c-11 -10 -10 -144 1 -144 5 0 11 8 13 18 6 26 -6 135 -14
126z"/>
<path d="M3587 3473 c-4 -3 -7 -12 -7 -20 0 -21 48 -16 60 7 10 18 8 20 -18
20 -16 0 -32 -3 -35 -7z"/>
<path d="M3790 3410 c0 -40 4 -70 10 -70 6 0 10 30 10 70 0 40 -4 70 -10 70
-6 0 -10 -30 -10 -70z"/>
<path d="M2409 3468 c-8 -15 -2 -58 7 -58 13 0 26 38 18 52 -5 7 -22 11 -25 6z"/>
<path d="M373 3427 c-23 -17 -42 -38 -43 -45 0 -7 20 3 45 24 25 20 45 40 45
45 0 12 0 12 -47 -24z"/>
<path d="M1484 3436 c-6 -17 2 -36 17 -36 12 0 12 37 -1 45 -6 3 -13 -1 -16
-9z"/>
<path d="M1941 3423 c-8 -17 -9 -29 -2 -36 11 -11 14 -5 24 41 7 30 -7 28 -22
-5z"/>
<path d="M700 3417 c0 -8 7 -21 16 -28 14 -11 15 -10 12 11 -3 26 -28 41 -28
17z"/>
<path d="M120 3385 c-8 -10 -10 -28 -5 -51 l6 -36 30 28 c32 30 38 47 14 38
-10 -4 -15 0 -15 15 0 25 -12 27 -30 6z"/>
<path d="M3095 3357 c-14 -26 -16 -45 -11 -81 4 -25 12 -44 17 -40 5 3 7 27 3
56 l-7 51 28 -7 c33 -8 49 8 34 36 -15 28 -44 21 -64 -15z"/>
<path d="M1459 3328 c-41 -45 -60 -45 -40 -1 13 28 13 28 -8 9 -12 -11 -21
-31 -21 -48 0 -40 29 -37 65 8 21 26 34 35 51 31 15 -3 24 2 27 14 12 45 -27
38 -74 -13z"/>
<path d="M1922 3347 c4 -30 63 -32 63 -2 0 15 -8 20 -33 22 -29 3 -33 0 -30
-20z"/>
<path d="M702 3340 c-12 -5 -27 -21 -34 -35 -6 -14 -18 -25 -26 -25 -12 0 -11
4 3 26 9 14 14 28 11 31 -5 5 -46 -56 -46 -70 0 -4 7 -10 16 -14 10 -4 25 6
43 28 19 22 37 34 57 34 18 1 30 8 32 18 4 19 -19 21 -56 7z"/>
<path d="M1946 3311 c-4 -6 -4 -16 -1 -22 4 -5 -1 -20 -12 -31 -13 -16 -14
-20 -3 -16 24 7 47 55 33 69 -8 8 -13 8 -17 0z"/>
<path d="M126 3275 c-21 -17 -37 -37 -35 -44 3 -7 21 6 43 28 49 50 44 60 -8
16z"/>
<path d="M2707 3303 c-25 -6 -17 -36 10 -38 22 -2 38 19 27 36 -5 9 -8 10 -37
2z"/>
<path d="M572 3277 c-31 -33 -27 -42 8 -17 17 12 30 26 30 31 0 16 -16 10 -38
-14z"/>
<path d="M332 3254 c2 -13 12 -18 33 -18 43 0 40 28 -3 32 -28 3 -33 0 -30
-14z"/>
<path d="M3780 3089 c-19 -15 -30 -29 -23 -29 15 0 70 46 63 53 -3 3 -21 -8
-40 -24z"/>
<path d="M2360 3065 c-24 -25 -40 -45 -36 -45 10 0 78 58 89 77 17 27 -10 11
-53 -32z"/>
<path d="M3310 3079 c-22 -18 -29 -29 -19 -29 16 0 66 46 58 54 -2 3 -20 -9
-39 -25z"/>
<path d="M2888 3055 c-38 -25 -68 -49 -68 -54 0 -11 122 63 141 85 20 25 -4
14 -73 -31z"/>
<path d="M3049 3053 c-26 -28 -28 -33 -10 -22 22 14 60 59 49 59 -2 0 -20 -17
-39 -37z"/>
<path d="M3580 3060 c-19 -16 -32 -29 -27 -30 8 0 87 50 87 56 0 13 -31 0 -60
-26z"/>
<path d="M2498 3010 l-3 -74 -44 -13 c-54 -15 -81 -4 -81 35 0 21 -2 24 -10
12 -19 -29 -12 -70 15 -82 29 -13 111 6 123 29 7 11 12 11 33 -5 54 -43 230
-52 332 -17 24 8 39 9 43 3 4 -6 18 -8 33 -5 14 3 34 -1 45 -8 11 -9 30 -12
50 -8 65 12 91 42 36 41 -17 -1 -36 4 -42 10 -9 9 -5 12 16 12 18 0 26 5 24
13 -8 23 -42 19 -59 -9 l-16 -26 -7 61 c-5 42 -11 61 -19 58 -8 -2 -11 -22 -9
-55 3 -41 0 -53 -12 -58 -9 -3 -22 -1 -29 4 -9 8 -27 7 -62 -3 -57 -18 -198
-20 -261 -4 -49 13 -73 44 -75 96 0 15 -4 37 -9 48 -6 14 -9 -3 -12 -55z"/>
<path d="M3184 3065 c-3 -8 -3 -18 0 -24 4 -5 -8 -23 -26 -40 -18 -17 -28 -31
-21 -31 19 0 83 71 83 92 0 21 -28 24 -36 3z"/>
<path d="M198 3044 c-5 -4 -8 -42 -8 -83 0 -78 16 -121 44 -121 21 0 27 27 9
35 -13 4 -14 8 -4 18 9 9 16 7 30 -12 17 -22 23 -23 90 -19 40 3 76 9 81 14
15 16 17 144 2 144 -4 0 -13 -15 -20 -33 -14 -38 -15 -73 -2 -42 7 17 9 15 9
-12 1 -36 4 -34 -82 -38 -38 -2 -51 1 -60 16 -14 23 -45 25 -53 4 -13 -34 -23
-11 -26 61 -2 42 -6 72 -10 68z"/>
<path d="M354 3031 c-35 -21 -51 -41 -34 -41 7 0 9 -8 5 -20 -5 -16 -2 -20 18
-20 14 0 28 7 31 16 9 24 8 27 -14 21 -27 -7 -25 1 7 35 32 33 29 35 -13 9z"/>
<path d="M2709 3048 c-8 -16 -3 -48 7 -48 12 0 34 29 34 44 0 6 -39 9 -41 4z"/>
<path d="M3349 3033 c-1 -10 -2 -30 -3 -46 -1 -15 -8 -34 -16 -42 -13 -12 -15
-10 -16 21 -1 38 -34 81 -53 70 -18 -11 -13 -31 14 -60 34 -37 33 -63 -5 -71
-17 -4 -30 -13 -30 -22 0 -12 7 -14 28 -8 32 8 82 53 82 74 0 14 1 14 10 1 5
-8 10 -25 10 -36 0 -35 23 -45 102 -44 296 4 282 3 292 31 10 29 0 119 -14
119 -16 0 -24 -72 -11 -92 11 -17 9 -19 -11 -17 -13 1 -32 -2 -42 -6 -13 -6
-21 -4 -24 3 -2 8 -10 8 -28 0 -19 -9 -30 -9 -43 -1 -11 7 -23 8 -32 2 -19
-12 -130 -11 -149 1 -8 5 -19 36 -25 71 -9 58 -33 93 -36 52z"/>
<path d="M3796 3031 c-8 -12 -6 -120 2 -135 10 -17 22 21 22 69 0 53 -12 86
-24 66z"/>
<path d="M260 3005 c-13 -14 -21 -27 -19 -30 5 -4 59 42 59 50 0 12 -19 3 -40
-20z"/>
<path d="M1260 3020 c-18 -11 -24 -61 -7 -54 19 7 40 45 30 55 -4 4 -15 4 -23
-1z"/>
<path d="M2423 3018 c-5 -7 -7 -24 -3 -38 7 -24 8 -24 15 -5 5 11 9 22 11 25
1 3 -1 12 -5 18 -6 10 -10 10 -18 0z"/>
<path d="M3574 3021 c-12 -12 -2 -41 14 -38 45 7 61 48 16 45 -14 -2 -27 -4
-30 -7z"/>
<path d="M487 3009 c-5 -9 -7 -43 -5 -75 2 -48 5 -55 13 -39 6 11 8 45 5 75
-4 36 -9 49 -13 39z"/>
<path d="M925 2992 c-36 -23 -63 -52 -46 -52 11 0 91 69 81 70 -3 0 -18 -8
-35 -18z"/>
<path d="M696 2993 c-4 -5 -13 -8 -19 -8 -7 0 -13 -8 -15 -17 -5 -25 34 -24
48 1 5 11 10 22 10 25 0 8 -15 7 -24 -1z"/>
<path d="M1964 2992 c-19 -12 -35 -50 -24 -57 14 -9 32 5 26 20 -2 7 1 18 7
24 13 13 6 23 -9 13z"/>
<path d="M765 2940 c-4 -6 -1 -18 6 -26 18 -22 4 -28 -72 -31 -64 -2 -71 0
-78 20 l-8 21 -13 -24 c-11 -20 -10 -25 6 -37 10 -7 28 -13 40 -13 15 0 24 -8
28 -25 8 -32 30 -33 24 -1 -4 22 -1 24 43 30 47 6 59 18 59 56 0 23 -26 45
-35 30z"/>
<path d="M116 2925 c-10 -26 -7 -55 5 -55 6 0 9 -7 5 -15 -8 -23 2 -18 29 13
28 31 31 44 9 35 -11 -4 -15 -1 -12 13 4 23 -27 31 -36 9z"/>
<path d="M1302 2919 c1 -13 8 -23 13 -21 15 3 12 35 -3 40 -9 3 -13 -3 -10
-19z"/>
<path d="M1566 2915 c-31 -28 -37 -30 -54 -13 -18 18 -34 -9 -21 -33 16 -30
11 -35 -51 -52 -117 -33 -276 -13 -335 43 -30 29 -38 25 -20 -10 9 -18 35 -40
65 -55 43 -22 62 -25 152 -24 122 0 186 19 206 62 13 26 20 30 72 31 20 1 26
7 28 30 5 42 -10 50 -42 21z"/>
<path d="M3162 2912 c-12 -10 -23 -29 -24 -42 -3 -54 3 -100 13 -100 7 0 10
19 7 53 l-3 52 34 0 c37 0 50 17 31 40 -16 19 -30 19 -58 -3z"/>
<path d="M879 2870 c-37 -39 -55 -40 -43 -3 5 17 4 16 -10 -1 -9 -11 -16 -28
-16 -37 0 -34 22 -30 59 10 22 24 47 41 59 41 13 0 22 6 22 15 0 27 -32 16
-71 -25z"/>
<path d="M1920 2896 c0 -7 7 -19 15 -26 12 -10 16 -9 21 3 3 9 3 21 -1 27 -9
15 -35 12 -35 -4z"/>
<path d="M1970 2886 c0 -18 16 -29 30 -21 13 8 1 35 -16 35 -8 0 -14 -6 -14
-14z"/>
<path d="M2715 2842 c-7 -19 8 -29 38 -27 31 2 28 27 -5 36 -20 5 -28 3 -33
-9z"/>
<path d="M1571 2819 c-18 -16 -31 -33 -28 -36 8 -8 66 39 66 55 1 17 0 16 -38
-19z"/>
<path d="M1955 2840 c-3 -5 -4 -14 0 -19 3 -5 1 -12 -5 -16 -5 -3 -10 -14 -10
-23 1 -24 39 26 40 51 0 19 -15 23 -25 7z"/>
<path d="M124 2805 c-21 -19 -34 -34 -29 -35 15 0 81 57 74 64 -3 3 -23 -10
-45 -29z"/>
<path d="M718 2790 c-7 -11 -18 -20 -25 -20 -7 0 -13 -5 -13 -10 0 -7 6 -7 18
-1 25 13 57 51 44 51 -7 0 -17 -9 -24 -20z"/>
<path d="M803 2646 c-15 -13 -25 -27 -22 -30 3 -3 18 8 34 24 35 36 27 40 -12
6z"/>
<path d="M620 2641 c-15 -29 -12 -41 9 -41 19 0 31 18 31 46 0 21 -28 17 -40
-5z"/>
<path d="M3770 2625 c-13 -14 -19 -25 -13 -25 5 0 20 11 33 25 13 14 19 25 13
25 -5 0 -20 -11 -33 -25z"/>
<path d="M1480 2569 c0 -44 4 -68 10 -64 6 3 10 35 10 71 0 36 -4 64 -10 64
-6 0 -10 -30 -10 -71z"/>
<path d="M2835 2605 c-22 -19 -35 -34 -30 -35 14 0 81 57 75 63 -3 3 -23 -10
-45 -28z"/>
<path d="M3290 2609 c-21 -18 -28 -29 -19 -29 16 0 66 47 58 54 -2 2 -20 -9
-39 -25z"/>
<path d="M3615 2608 c-50 -37 -51 -38 -34 -38 17 0 87 56 79 63 -3 2 -23 -9
-45 -25z"/>
<path d="M1562 2602 c-18 -15 -32 -30 -32 -35 0 -11 69 36 74 51 8 19 -6 14
-42 -16z"/>
<path d="M2374 2596 c-21 -19 -37 -36 -34 -39 3 -3 23 10 45 28 22 19 37 36
34 39 -3 3 -23 -9 -45 -28z"/>
<path d="M358 2584 c-27 -20 -48 -40 -48 -45 0 -11 79 41 99 65 22 27 -1 17
-51 -20z"/>
<path d="M2970 2590 c-20 -17 -28 -30 -20 -30 14 0 70 45 70 55 0 11 -17 2
-50 -25z"/>
<path d="M198 2605 c-8 -8 3 -147 14 -167 10 -20 62 -24 114 -9 34 10 61 0 50
-18 -4 -6 -2 -11 3 -11 6 0 11 4 11 9 0 15 31 22 129 27 100 6 113 12 109 52
-4 28 -23 29 -22 2 0 -13 -6 -20 -17 -20 -12 0 -16 6 -12 20 8 29 -23 26 -43
-5 -19 -30 -34 -32 -34 -6 0 30 -30 34 -69 8 -31 -20 -48 -23 -121 -23 l-85 1
-3 65 c-3 61 -11 87 -24 75z m259 -141 c-3 -3 -12 -4 -19 -1 -8 3 -5 6 6 6 11
1 17 -2 13 -5z"/>
<path d="M676 2598 c-8 -17 -1 -117 8 -126 3 -2 8 7 12 22 8 34 -10 128 -20
104z"/>
<path d="M577 2593 c-4 -3 -7 -12 -7 -20 0 -15 26 -18 34 -4 7 11 -18 33 -27
24z"/>
<path d="M1104 2575 c-4 -14 -3 -29 0 -33 11 -11 41 14 44 37 5 32 -36 29 -44
-4z"/>
<path d="M2478 2594 c-5 -4 -8 -29 -8 -55 0 -56 -15 -69 -81 -69 -38 0 -41 2
-36 23 6 21 6 21 -8 3 -41 -54 13 -84 91 -51 32 13 36 13 54 -5 18 -18 34 -20
138 -20 71 1 132 6 155 14 23 9 39 10 43 4 4 -5 16 -7 27 -4 12 3 27 0 34 -6
18 -14 98 -1 120 20 16 16 15 17 -13 20 -48 5 -63 14 -35 21 31 8 38 26 14 35
-19 8 -53 -25 -53 -51 0 -8 -4 -11 -10 -8 -5 3 -10 34 -10 68 0 73 -17 67 -22
-8 -3 -50 -3 -50 -38 -51 -19 0 -69 -7 -110 -14 -81 -13 -205 -9 -222 8 -6 6
-14 39 -17 72 -3 34 -9 58 -13 54z"/>
<path d="M3136 2584 c-3 -9 -3 -21 0 -26 4 -6 -8 -24 -27 -39 -19 -16 -29 -29
-22 -29 20 0 83 69 83 90 0 24 -25 27 -34 4z"/>
<path d="M3336 2577 c-3 -15 -9 -39 -12 -54 -11 -51 -44 -74 -36 -25 4 29 -32
87 -49 77 -16 -10 -10 -40 11 -58 27 -23 26 -55 -2 -66 -57 -21 -68 -23 -62
-8 2 7 -2 19 -10 26 -12 10 -21 9 -45 -4 -30 -15 -31 -18 -31 -85 0 -40 4 -70
10 -70 6 0 10 27 10 61 l0 61 28 -7 c80 -22 139 -3 176 55 l15 25 1 -27 c0
-44 40 -63 129 -62 42 0 86 6 98 12 15 9 24 9 28 1 5 -6 33 -8 78 -5 88 7 108
24 100 88 -6 59 -12 73 -23 62 -14 -15 -25 -99 -12 -90 7 4 12 2 12 -5 0 -6
-8 -9 -20 -6 -11 3 -20 1 -20 -5 0 -6 -10 -8 -22 -5 -12 4 -28 1 -35 -5 -10
-8 -20 -8 -39 1 -17 7 -31 8 -44 1 -28 -15 -136 -12 -175 4 -33 14 -35 18 -35
63 0 59 -16 91 -24 50z"/>
<path d="M857 2583 c-4 -3 -7 -21 -7 -39 0 -50 -9 -63 -61 -90 -27 -13 -49
-27 -49 -29 0 -3 12 -5 26 -5 18 0 38 12 60 36 l34 35 0 -29 c0 -22 6 -31 23
-36 38 -10 56 -7 77 14 21 21 28 70 10 70 -10 0 -14 -13 -11 -36 2 -14 -32
-24 -59 -17 -14 4 -20 14 -21 37 -1 40 -7 87 -12 92 -2 2 -7 1 -10 -3z"/>
<path d="M3786 2581 c-3 -4 -3 -39 1 -76 5 -60 8 -66 20 -49 7 10 11 25 8 34
-3 9 -6 35 -7 58 -1 40 -10 53 -22 33z"/>
<path d="M500 2568 c0 -5 0 -11 0 -15 0 -4 13 -8 30 -9 23 -1 30 3 30 17 0 14
-7 18 -30 16 -16 -1 -30 -5 -30 -9z"/>
<path d="M767 2566 c-3 -8 1 -22 8 -33 8 -10 15 -28 15 -40 0 -13 5 -23 10
-23 14 0 12 84 -2 98 -16 16 -25 15 -31 -2z"/>
<path d="M2397 2572 c-5 -7 -10 -27 -13 -44 -3 -29 -2 -30 12 -16 9 9 14 27
12 44 -2 20 -6 25 -11 16z"/>
<path d="M3620 2570 c0 -5 -5 -9 -12 -7 -6 1 -14 -6 -16 -16 -3 -16 0 -18 20
-12 46 15 65 45 28 45 -11 0 -20 -4 -20 -10z"/>
<path d="M1305 2547 c-14 -22 -12 -57 4 -57 9 1 51 37 51 45 0 4 -7 4 -16 1
-12 -4 -15 -2 -11 9 10 25 -11 27 -28 2z"/>
<path d="M2621 2546 c-23 -25 -21 -46 4 -46 16 0 45 38 45 57 0 21 -25 15 -49
-11z"/>
<path d="M402 2533 c5 -25 28 -28 28 -4 0 12 -6 21 -16 21 -9 0 -14 -7 -12
-17z"/>
<path d="M1550 2526 c0 -8 7 -16 15 -20 25 -9 17 -35 -12 -42 -46 -10 -53 -13
-53 -24 0 -11 69 -14 87 -2 22 14 27 61 8 82 -21 23 -45 26 -45 6z"/>
<path d="M1950 2525 c-10 -12 -10 -18 0 -30 16 -20 30 -10 28 20 -3 29 -10 31
-28 10z"/>
<path d="M106 2493 c-10 -20 -11 -33 -4 -49 l11 -23 28 22 c36 26 37 39 2 32
-16 -3 -22 -2 -15 1 14 7 17 44 2 44 -5 0 -16 -12 -24 -27z"/>
<path d="M1422 2497 c4 -22 1 -27 -22 -32 -60 -13 -171 -8 -212 11 -40 18 -40
18 -59 -5 -10 -13 -16 -27 -13 -32 3 -6 -9 -23 -27 -39 -19 -16 -31 -32 -27
-35 3 -3 22 8 41 24 19 17 42 31 51 31 9 0 16 4 16 9 0 6 12 6 31 -1 17 -6 68
-8 114 -6 99 5 138 24 133 65 -2 15 -9 29 -17 31 -10 3 -13 -2 -9 -21z"/>
<path d="M1930 2465 c-12 -14 13 -41 29 -31 5 3 12 0 14 -6 7 -18 27 10 20 28
-6 17 -51 24 -63 9z"/>
<path d="M122 2399 c-18 -17 -32 -36 -32 -43 0 -6 17 6 37 26 20 21 35 40 32
43 -3 2 -20 -9 -37 -26z"/>
<path d="M510 2390 c-20 -17 -28 -30 -20 -30 14 0 70 45 70 55 0 11 -17 2 -50
-25z"/>
<path d="M917 2396 c-3 -8 1 -17 8 -20 20 -7 28 9 11 23 -10 9 -15 8 -19 -3z"/>
<path d="M1318 2381 c-47 -42 -31 -47 17 -6 22 19 34 34 28 35 -7 0 -27 -13
-45 -29z"/>
<path d="M1945 2400 c-3 -5 -3 -15 0 -20 4 -6 1 -17 -5 -25 -7 -9 -8 -15 -2
-15 11 0 42 44 42 60 0 13 -27 13 -35 0z"/>
<path d="M2643 2393 c-6 -17 -5 -18 25 -27 21 -7 24 -5 26 27 1 17 -44 18 -51
0z"/>
<path d="M955 2360 c-16 -16 -24 -30 -18 -30 10 0 34 24 47 48 12 20 2 14 -29
-18z"/>
<path d="M3111 2192 c-39 -37 -54 -72 -30 -72 18 0 38 -32 39 -60 0 -19 -7
-28 -30 -37 -16 -6 -30 -17 -30 -23 0 -21 52 -1 88 33 l32 31 0 -27 c0 -20 8
-31 33 -44 45 -24 211 -30 297 -10 39 10 69 12 76 6 6 -5 35 -6 65 -3 30 3 64
5 76 5 31 -1 44 29 41 94 -3 65 -24 76 -30 15 -2 -22 0 -40 4 -40 5 0 8 -7 8
-16 0 -11 -6 -15 -20 -11 -11 3 -23 1 -26 -5 -3 -5 -16 -7 -27 -4 -12 3 -27 0
-34 -6 -10 -8 -20 -8 -38 2 -19 10 -33 10 -69 0 -25 -7 -96 -13 -158 -13 -138
-1 -178 14 -178 66 0 52 -12 107 -21 101 -5 -3 -9 -25 -9 -48 0 -27 -6 -48
-15 -56 -13 -10 -15 -9 -15 11 0 13 -9 38 -19 54 l-19 30 31 27 c17 15 28 30
25 33 -3 4 -24 -11 -47 -33z"/>
<path d="M3783 2206 c-18 -11 -33 -25 -33 -29 0 -8 23 3 55 26 32 24 13 27
-22 3z"/>
<path d="M1572 2197 c-31 -22 -41 -37 -23 -37 14 0 67 47 60 54 -3 3 -19 -5
-37 -17z"/>
<path d="M2686 2169 c-42 -28 -75 -53 -72 -56 3 -3 20 4 38 15 18 12 49 30 69
41 20 11 39 27 42 36 4 8 5 15 4 15 -2 0 -38 -23 -81 -51z"/>
<path d="M2344 2175 c-21 -19 -34 -34 -29 -34 15 -1 81 56 74 63 -3 3 -23 -10
-45 -29z"/>
<path d="M3607 2179 c-22 -11 -36 -23 -33 -27 8 -8 76 28 76 40 0 10 2 11 -43
-13z"/>
<path d="M2460 2126 c0 -57 -3 -65 -26 -80 -14 -10 -39 -16 -57 -14 -27 2 -33
8 -35 31 -5 42 -22 32 -22 -13 0 -34 4 -42 24 -50 29 -11 88 3 106 25 11 13
16 12 37 -11 24 -26 28 -27 103 -21 42 3 86 10 97 15 14 8 23 8 31 0 8 -8 18
-8 34 -1 18 8 26 7 37 -5 11 -11 27 -13 64 -8 61 7 83 29 34 34 -42 4 -59 21
-29 29 25 6 25 26 -1 31 -10 2 -24 -9 -35 -28 l-19 -31 -7 32 c-3 17 -6 49 -6
71 0 24 -4 37 -10 33 -5 -3 -10 -33 -10 -67 l0 -60 -30 6 c-17 3 -41 1 -55 -4
-14 -5 -53 -12 -87 -16 -88 -9 -106 7 -115 99 -8 85 -23 87 -23 3z"/>
<path d="M2835 2160 c-16 -16 -24 -30 -19 -30 6 0 23 14 39 30 16 17 24 30 19
30 -6 0 -23 -13 -39 -30z"/>
<path d="M2991 2176 c-6 -7 -9 -20 -6 -29 4 -9 -6 -24 -27 -41 -22 -17 -28
-26 -17 -26 20 0 79 64 79 85 0 20 -16 27 -29 11z"/>
<path d="M1282 2133 c-35 -25 -61 -47 -58 -50 6 -6 112 62 122 78 14 23 -4 15
-64 -28z"/>
<path d="M1424 2169 c-3 -6 -1 -15 6 -19 9 -6 9 -9 -1 -12 -8 -3 -10 -9 -6
-14 9 -9 47 30 47 47 0 13 -38 11 -46 -2z"/>
<path d="M805 2135 c-22 -19 -35 -34 -30 -34 12 -1 45 26 64 52 20 25 11 21
-34 -18z"/>
<path d="M953 2158 c-18 -24 -23 -48 -10 -48 19 0 37 21 37 42 0 21 -13 24
-27 6z"/>
<path d="M2562 2150 c-16 -26 -15 -40 1 -40 16 0 47 32 47 48 0 19 -34 14 -48
-8z"/>
<path d="M402 2148 c-16 -16 -15 -31 1 -22 8 5 7 2 -2 -9 -8 -10 -11 -20 -9
-23 8 -8 49 47 42 57 -7 12 -18 11 -32 -3z"/>
<path d="M705 2147 c-10 -24 2 -136 16 -153 6 -8 27 -14 45 -14 28 0 36 5 45
27 11 30 8 59 -6 55 -6 -2 -9 -14 -8 -28 1 -20 -3 -24 -28 -24 -34 0 -37 5
-48 91 -5 45 -10 59 -16 46z"/>
<path d="M3790 2138 c0 -52 13 -127 21 -122 18 11 6 144 -12 144 -5 0 -9 -10
-9 -22z"/>
<path d="M1585 2128 c-7 -32 -1 -128 7 -128 9 0 11 12 13 93 1 57 -10 77 -20
35z"/>
<path d="M2377 2143 c-2 -4 -5 -24 -5 -43 l-1 -35 20 24 c10 13 19 27 19 31 0
12 -28 32 -33 23z"/>
<path d="M106 2125 c-3 -8 -1 -15 4 -15 5 0 7 -7 4 -15 -4 -8 -1 -15 5 -15 11
0 31 31 31 49 0 17 -37 13 -44 -4z"/>
<path d="M3566 2123 c-4 -11 21 -33 38 -33 7 0 36 31 36 39 0 13 -69 7 -74 -6z"/>
<path d="M577 2102 c-15 -15 -27 -31 -27 -35 0 -12 50 25 61 44 15 28 -3 23
-34 -9z"/>
<path d="M988 2083 c-3 -46 -4 -48 -37 -51 -29 -3 -33 -1 -27 15 5 16 4 16 -9
-2 -8 -10 -14 -24 -12 -30 5 -13 67 -19 79 -7 7 7 26 2 56 -11 39 -18 65 -22
157 -21 61 0 133 2 160 3 28 2 59 2 70 0 15 -3 22 3 30 28 8 27 15 34 49 40
61 13 55 29 -14 37 -64 7 -80 4 -80 -20 0 -10 5 -12 13 -8 8 5 8 3 -2 -9 -40
-50 -286 -59 -378 -15 -23 11 -29 21 -31 56 -4 57 -20 53 -24 -5z"/>
<path d="M1944 2075 c-17 -25 -14 -42 4 -31 9 5 23 56 16 56 -2 0 -11 -11 -20
-25z"/>
<path d="M422 2048 l3 -43 -53 -3 c-47 -3 -54 -1 -59 17 -7 26 -50 28 -93 6
-37 -19 -41 -55 -7 -56 18 -1 17 -2 -8 -10 -44 -13 -63 -3 -67 34 l-4 32 -11
-26 c-28 -65 18 -95 96 -63 52 22 67 52 30 61 -22 6 -22 7 -3 13 23 9 54 -5
54 -24 0 -19 37 -26 87 -17 23 5 46 4 51 -1 5 -5 38 -4 78 2 156 23 178 39 88
60 -48 12 -57 12 -65 -1 -6 -10 -2 -16 14 -20 12 -4 -6 -7 -40 -7 -63 0 -63 0
-63 28 0 35 -9 60 -21 60 -5 0 -8 -19 -7 -42z"/>
<path d="M2987 2038 c-25 -18 -27 -25 -27 -88 0 -38 5 -72 10 -75 6 -4 10 20
10 65 l0 71 32 -3 c37 -3 50 20 20 38 -14 9 -24 8 -45 -8z"/>
<path d="M1966 2023 c-4 -4 -15 -8 -24 -8 -9 0 -17 -7 -17 -15 0 -8 9 -15 20
-15 11 0 25 -3 31 -7 18 -12 27 23 11 39 -7 7 -17 10 -21 6z"/>
<path d="M1945 1959 c-4 -6 -4 -13 -1 -16 3 -3 1 -12 -5 -20 -7 -8 -8 -13 -1
-13 13 0 43 46 35 54 -9 9 -21 7 -28 -5z"/>
<path d="M2616 1954 c-6 -16 20 -39 28 -25 4 6 13 8 21 4 10 -3 15 1 15 15 0
16 -6 20 -30 20 -16 -1 -31 -7 -34 -14z"/>
<path d="M736 1951 c-8 -12 14 -27 42 -29 15 0 22 5 22 19 0 14 -7 19 -29 19
-17 0 -32 -4 -35 -9z"/>
<path d="M270 1935 c0 -8 7 -15 15 -15 8 0 15 7 15 15 0 8 -7 15 -15 15 -8 0
-15 -7 -15 -15z"/>
<path d="M467 1936 c-6 -15 1 -26 15 -26 4 0 8 9 8 20 0 23 -15 27 -23 6z"/>
<path d="M353 1928 c-8 -14 6 -25 32 -25 17 0 25 5 25 17 0 13 -7 17 -26 16
-14 0 -28 -4 -31 -8z"/>
<path d="M288 1885 c-16 -13 -28 -30 -28 -37 0 -7 14 2 32 19 38 38 35 51 -4
18z"/>
<path d="M486 1884 c-15 -14 -26 -27 -23 -30 3 -3 20 8 39 25 18 17 29 30 23
30 -5 0 -23 -11 -39 -25z"/>
<path d="M3252 1781 c-45 -42 -40 -48 8 -10 22 18 40 34 40 36 0 10 -19 -1
-48 -26z"/>
<path d="M2829 1747 c-52 -37 -113 -87 -105 -87 12 0 156 102 156 111 0 12 2
13 -51 -24z"/>
<path d="M3758 1762 c-16 -9 -28 -20 -28 -25 0 -9 56 19 65 33 9 15 -6 12 -37
-8z"/>
<path d="M806 1754 c-3 -8 -3 -47 0 -85 8 -77 -4 -106 -35 -89 -12 6 -34 4
-67 -6 -70 -22 -214 -20 -262 3 -29 14 -38 25 -40 48 -2 17 -8 34 -13 40 -10
10 -12 -2 -9 -47 1 -18 -5 -30 -19 -37 -30 -17 -41 -13 -51 15 -9 23 -14 25
-43 19 -53 -12 -88 -55 -54 -68 6 -3 -5 -6 -25 -6 -40 -1 -65 25 -54 57 5 13
2 12 -9 -2 -21 -27 -19 -52 5 -76 17 -17 28 -19 58 -14 20 4 45 11 54 16 22
11 41 45 33 58 -3 6 -4 10 0 10 3 0 10 -11 15 -25 11 -28 45 -33 75 -11 16 11
23 10 54 -8 31 -18 51 -21 136 -20 66 0 115 6 145 17 34 12 47 13 58 4 27 -22
125 0 136 30 9 24 -14 45 -41 38 -23 -5 -23 -4 -23 75 0 75 -10 101 -24 64z
m44 -174 c-8 -5 -19 -10 -25 -10 -5 0 -3 5 5 10 8 5 20 10 25 10 6 0 3 -5 -5
-10z"/>
<path d="M2385 1739 c-56 -42 -57 -58 -1 -20 25 18 46 36 46 41 0 13 2 14 -45
-21z"/>
<path d="M1502 1748 c-7 -7 -12 -45 -12 -99 l0 -87 -52 -6 c-66 -8 -181 7
-214 29 -20 13 -25 23 -23 50 4 43 -8 56 -17 20 -4 -15 -17 -37 -30 -50 -13
-13 -24 -31 -24 -40 0 -16 35 -21 44 -6 3 5 25 -1 48 -12 35 -18 62 -22 145
-22 83 0 103 -3 103 -14 0 -12 2 -12 13 1 6 9 31 21 53 27 47 12 69 33 60 56
-6 18 -39 20 -68 4 -20 -11 -20 -9 -16 75 3 47 4 86 4 86 -1 0 -7 -5 -14 -12z
m55 -174 c-3 -3 -12 -4 -19 -1 -8 3 -5 6 6 6 11 1 17 -2 13 -5z"/>
<path d="M3608 1737 c-21 -12 -36 -27 -34 -33 3 -6 -1 -17 -7 -23 -15 -15 8
-32 32 -24 43 16 57 49 17 39 -14 -3 -28 -2 -31 4 -3 5 0 10 7 10 16 0 65 37
58 43 -3 3 -22 -5 -42 -16z"/>
<path d="M1194 1726 c-38 -32 -27 -42 11 -11 17 13 27 26 24 30 -4 3 -20 -5
-35 -19z"/>
<path d="M1554 1707 c1 -37 3 -41 13 -28 17 22 16 71 0 71 -10 0 -14 -13 -13
-43z"/>
<path d="M2499 1738 c-1 -7 0 -38 1 -69 2 -53 0 -56 -27 -67 -55 -20 -63 -21
-89 -12 -21 8 -25 15 -22 35 3 14 2 25 -2 25 -4 0 -10 -15 -14 -32 -5 -27 -2
-36 15 -50 27 -23 54 -22 107 2 34 15 42 16 42 5 0 -34 95 -52 188 -35 37 7
75 17 84 22 11 5 25 4 38 -4 16 -10 24 -10 39 -1 15 10 22 9 31 -2 23 -27 130
-12 130 18 0 9 -12 11 -40 9 -31 -3 -40 -1 -40 11 0 11 7 15 21 12 15 -3 19 0
15 11 -3 9 -6 18 -6 20 0 15 -32 -1 -49 -23 l-20 -28 -1 62 c0 34 -4 65 -10
68 -11 7 -12 1 -14 -75 -1 -49 -3 -55 -24 -58 -12 -2 -24 3 -28 11 -5 13 -10
13 -37 -1 -39 -20 -229 -24 -248 -5 -6 6 -14 44 -17 83 -2 39 -9 73 -13 76 -5
3 -10 -1 -10 -8z"/>
<path d="M3116 1735 c-3 -8 -3 -22 0 -30 4 -8 2 -15 -2 -15 -14 -1 -60 -40
-47 -40 20 0 83 61 83 81 0 23 -25 26 -34 4z"/>
<path d="M2971 1714 c-14 -13 -23 -26 -20 -29 3 -3 16 6 29 20 30 32 23 40 -9
9z"/>
<path d="M3307 1733 c-3 -4 -8 -29 -12 -55 -4 -26 -13 -55 -21 -65 -12 -16
-13 -15 -14 17 0 39 -23 80 -46 80 -21 0 -17 -33 6 -53 11 -9 20 -29 20 -46 0
-22 -6 -31 -30 -41 -33 -14 -40 -30 -12 -30 27 0 80 36 87 61 7 22 8 21 24
-12 15 -31 21 -35 75 -43 40 -7 76 -6 113 2 35 7 62 8 73 2 10 -5 39 -6 71 -1
29 5 58 7 64 5 6 -3 19 2 29 9 21 15 24 48 11 112 l-8 40 -13 -30 c-16 -36
-19 -99 -4 -75 8 13 10 12 10 -2 0 -10 -7 -18 -15 -18 -8 0 -15 6 -15 13 0 6
-5 4 -11 -5 -11 -20 -39 -24 -39 -6 0 9 -3 9 -12 0 -15 -15 -64 -16 -73 -2 -4
7 -12 7 -25 0 -27 -14 -173 -13 -193 3 -12 8 -19 32 -22 77 -6 66 -9 77 -18
63z"/>
<path d="M958 1714 c-5 -4 -8 -40 -8 -80 0 -63 3 -75 20 -84 35 -19 69 -2 76
36 7 38 2 50 -16 39 -6 -4 -8 -16 -4 -27 5 -17 2 -19 -23 -16 -27 3 -28 5 -33
71 -3 38 -8 65 -12 61z"/>
<path d="M174 1696 c-13 -9 -21 -26 -21 -42 l0 -26 24 25 c14 13 23 32 21 41
-3 15 -5 15 -24 2z"/>
<path d="M863 1698 c-25 -33 -25 -40 0 -22 27 19 34 34 18 34 -5 0 -13 -6 -18
-12z"/>
<path d="M1015 1690 c-27 -30 -12 -34 15 -5 13 14 19 25 13 25 -5 0 -18 -9
-28 -20z"/>
<path d="M2415 1701 c-3 -7 -8 -28 -11 -49 l-4 -37 20 24 c22 25 24 39 11 60
-6 9 -10 10 -16 2z"/>
<path d="M2649 1708 c-7 -15 -6 -58 1 -58 10 0 40 40 40 52 0 7 -38 12 -41 6z"/>
<path d="M310 1681 c-13 -25 -13 -51 0 -51 18 0 50 39 44 55 -8 21 -31 19 -44
-4z"/>
<path d="M3786 1674 c-9 -33 3 -116 15 -108 12 7 12 134 0 134 -5 0 -12 -12
-15 -26z"/>
<path d="M1957 1652 c-18 -20 -23 -52 -8 -52 5 0 14 7 21 15 10 12 10 15 0 15
-10 0 -10 3 0 15 19 22 6 28 -13 7z"/>
<path d="M3110 1610 c0 -5 -7 -10 -15 -10 -25 0 -36 -37 -29 -100 4 -33 11
-60 16 -60 7 0 8 25 3 66 l-7 67 41 -6 c43 -5 55 5 39 36 -9 18 -48 24 -48 7z"/>
<path d="M1932 1563 c2 -13 12 -18 33 -18 43 0 40 29 -3 33 -28 3 -33 0 -30
-15z"/>
<path d="M1016 1523 c-4 -4 -15 -8 -24 -8 -9 0 -17 -7 -17 -15 0 -19 55 -21
62 -2 7 16 -10 36 -21 25z"/>
<path d="M1957 1523 c-2 -5 -7 -21 -11 -38 -7 -29 -7 -29 13 -11 12 11 21 25
21 32 0 15 -17 28 -23 17z"/>
<path d="M2666 1503 c-7 -17 20 -37 29 -23 5 9 10 9 18 1 18 -18 29 -13 25 12
-2 18 -9 22 -35 22 -18 0 -35 -5 -37 -12z"/>
<path d="M267 1503 c-8 -7 11 -33 24 -33 5 0 9 9 9 20 0 19 -20 27 -33 13z"/>
<path d="M313 1476 c-24 -16 -43 -36 -43 -43 0 -9 12 -5 36 13 22 18 49 28 70
28 19 1 34 4 34 9 0 4 0 11 0 16 0 20 -57 6 -97 -23z"/>
<path d="M574 1478 c-4 -6 1 -17 11 -25 23 -16 41 3 23 24 -13 16 -25 17 -34
1z"/>
<path d="M618 1442 c-37 -27 -47 -42 -28 -42 13 0 76 57 70 63 -3 3 -22 -7
-42 -21z"/>
<path d="M106 1354 c-8 -20 6 -45 20 -36 6 4 14 17 18 30 6 18 3 22 -12 22
-11 0 -23 -7 -26 -16z"/>
<path d="M1327 1345 c-15 -14 -27 -28 -27 -31 0 -9 35 14 54 35 27 30 6 26
-27 -4z"/>
<path d="M1528 1324 c-21 -13 -38 -28 -38 -33 0 -13 78 31 85 47 6 17 -5 14
-47 -14z"/>
<path d="M2615 1321 c-14 -28 -7 -49 13 -37 5 3 8 -3 8 -12 0 -80 6 -132 14
-132 11 0 13 78 4 158 -8 59 -17 65 -39 23z"/>
<path d="M817 1322 c-21 -23 -22 -52 -3 -52 17 0 44 41 39 58 -6 17 -17 15
-36 -6z"/>
<path d="M3132 1305 c-43 -30 -48 -35 -31 -35 14 1 74 48 68 54 -2 2 -19 -6
-37 -19z"/>
<path d="M1320 1301 c-14 -27 -13 -31 6 -31 16 0 43 27 44 43 0 16 -40 6 -50
-12z"/>
<path d="M2501 1302 c-7 -12 -7 -22 0 -29 6 -6 -9 -25 -45 -53 -30 -24 -53
-46 -51 -48 14 -14 137 103 133 126 -5 23 -25 25 -37 4z"/>
<path d="M2774 1295 c-11 -12 -29 -27 -39 -33 -11 -6 -17 -13 -13 -17 3 -4 24
9 45 28 21 20 36 37 33 39 -3 2 -14 -6 -26 -17z"/>
<path d="M3592 1288 c-24 -17 -41 -33 -37 -36 3 -3 11 0 17 6 19 19 30 14 18
-7 -12 -24 -2 -31 26 -21 38 15 39 37 2 31 -13 -2 -9 11 9 31 27 30 11 28 -35
-4z"/>
<path d="M136 1291 c-4 -6 -14 -7 -22 -4 -12 4 -15 0 -12 -18 2 -15 9 -23 18
-20 8 2 23 3 33 3 21 -1 23 21 3 37 -9 8 -16 8 -20 2z"/>
<path d="M2879 1274 c-21 -24 -22 -26 -3 -16 25 13 50 42 37 42 -5 0 -20 -12
-34 -26z"/>
<path d="M2988 1288 c0 -7 -2 -19 -2 -26 -1 -7 -12 -22 -26 -32 -14 -10 -21
-22 -17 -26 11 -11 77 56 77 78 0 20 -29 25 -32 6z"/>
<path d="M348 1230 c-87 -55 -106 -87 -28 -44 54 29 132 93 115 93 -5 1 -45
-22 -87 -49z"/>
<path d="M540 1196 c0 -71 3 -87 18 -94 9 -5 65 -7 124 -4 106 4 107 4 118 33
9 22 9 40 0 79 -7 29 -16 48 -20 43 -13 -12 -22 -93 -12 -93 6 0 12 -7 16 -15
3 -10 -1 -15 -14 -15 -11 0 -20 8 -22 22 -4 31 -26 34 -40 4 -9 -22 -17 -26
-47 -24 -20 0 -43 -2 -52 -6 -30 -13 -49 20 -49 84 0 32 -4 62 -10 65 -6 4
-10 -25 -10 -79z"/>
<path d="M607 1262 c-19 -20 -23 -37 -7 -27 10 6 33 45 27 45 -2 0 -11 -8 -20
-18z"/>
<path d="M960 1266 c0 -7 7 -19 15 -26 13 -11 15 -8 15 14 0 16 -5 26 -15 26
-8 0 -15 -6 -15 -14z"/>
<path d="M1524 1269 c-3 -6 -1 -16 5 -22 9 -9 14 -8 21 3 9 15 4 30 -10 30 -5
0 -12 -5 -16 -11z"/>
<path d="M2576 1248 c-9 -21 -16 -45 -15 -55 0 -11 3 -13 6 -5 7 17 23 15 23
-3 0 -28 -32 -66 -54 -64 -12 1 -29 -1 -39 -6 -9 -4 -49 -5 -87 -3 -63 3 -70
2 -70 -15 0 -18 6 -19 103 -13 56 4 116 7 134 7 17 0 34 7 37 14 4 12 -10 145
-18 170 -2 6 -11 -7 -20 -27z"/>
<path d="M2795 1259 c-4 -5 -4 -22 0 -36 11 -44 -3 -80 -36 -92 -30 -10 -40
-41 -13 -41 8 0 12 -4 9 -10 -9 -14 -48 -13 -63 2 -7 7 -12 23 -12 38 -1 22
-2 23 -11 7 -18 -31 -7 -71 24 -82 23 -7 36 -5 65 11 31 16 37 24 34 49 -2 25
0 27 8 13 17 -28 140 -22 140 7 0 7 -15 11 -42 11 -33 -1 -43 3 -46 17 -3 15
1 17 22 11 19 -4 26 -2 26 9 0 35 -51 30 -68 -6 -9 -18 -11 -11 -11 41 -1 57
-11 77 -26 51z"/>
<path d="M3166 1254 c-3 -9 -6 -28 -6 -43 0 -15 -7 -36 -15 -47 -14 -18 -14
-17 -15 12 0 30 -32 84 -50 84 -20 0 -17 -31 6 -55 33 -36 31 -61 -7 -81 -21
-10 -28 -19 -21 -26 14 -14 84 22 98 50 11 23 11 23 17 -8 5 -23 15 -35 42
-45 41 -18 159 -20 236 -4 45 9 140 16 254 19 34 1 45 20 44 74 0 28 -4 60 -8
71 -7 17 -10 14 -20 -20 -14 -50 -14 -68 -1 -60 6 3 10 -1 10 -10 0 -12 -6
-15 -20 -10 -12 4 -20 2 -20 -5 0 -6 -10 -10 -22 -9 -13 1 -31 -1 -41 -6 -10
-4 -23 -2 -31 4 -10 8 -21 8 -42 1 -38 -15 -260 -28 -304 -19 -45 10 -60 32
-60 90 0 49 -13 72 -24 43z"/>
<path d="M3787 1263 c-2 -5 -2 -39 1 -77 5 -81 22 -70 22 16 0 51 -11 81 -23
61z"/>
<path d="M831 1213 c2 -67 12 -111 23 -95 10 16 -2 130 -15 138 -5 3 -8 -16
-8 -43z"/>
<path d="M1314 1235 c-6 -16 9 -34 29 -35 13 0 8 27 -8 40 -12 10 -16 9 -21
-5z"/>
<path d="M667 1233 c-8 -13 9 -37 21 -29 6 3 13 2 17 -4 11 -18 26 -10 23 13
-2 15 -11 23 -30 25 -14 2 -28 -1 -31 -5z"/>
<path d="M130 1212 c0 -11 -5 -24 -10 -27 -21 -13 -42 -67 -31 -78 8 -8 14 -8
22 0 8 8 20 6 45 -9 29 -17 47 -19 126 -16 51 2 107 10 123 18 17 7 39 12 50
11 29 -3 48 31 30 55 -13 18 -15 18 -43 -9 -49 -47 -224 -62 -277 -23 -11 8
-20 29 -21 51 -4 41 -14 62 -14 27z"/>
<path d="M1512 1201 c2 -10 15 -16 36 -17 25 -1 32 2 32 16 0 14 -8 18 -35 17
-26 -1 -35 -5 -33 -16z"/>
<path d="M1942 1200 c-6 -11 -12 -24 -12 -30 0 -16 27 -12 34 5 3 8 0 15 -6
15 -7 0 -6 5 2 15 7 8 8 15 4 15 -5 0 -15 -9 -22 -20z"/>
<path d="M1160 1191 c-15 -29 -12 -49 8 -55 18 -6 18 -8 2 -56 -9 -28 -20 -53
-23 -57 -10 -9 54 -53 77 -53 12 1 35 7 51 15 l30 13 -41 1 c-22 1 -49 7 -59
15 -17 12 -18 16 -5 32 14 16 13 17 -2 11 -20 -7 -25 17 -9 41 6 10 10 10 20
-2 14 -17 195 -20 249 -4 24 7 37 6 47 -2 9 -7 22 -9 32 -5 10 5 25 7 34 6 23
-3 41 24 36 51 l-4 23 -8 -23 c-4 -13 -13 -21 -19 -19 -6 2 -19 0 -28 -4 -11
-6 -22 -4 -31 6 -8 8 -17 12 -20 9 -11 -12 -82 -23 -108 -17 -20 4 -29 12 -31
29 -4 35 -20 34 -43 -3 -14 -23 -28 -32 -46 -33 -32 0 -58 25 -34 34 8 3 15
13 15 23 0 13 -3 14 -12 5 -15 -15 -45 -16 -53 -1 -4 6 2 13 14 16 29 7 26 23
-4 23 -14 0 -29 -8 -35 -19z m180 -61 c0 -5 -2 -10 -4 -10 -3 0 -8 5 -11 10
-3 6 -1 10 4 10 6 0 11 -4 11 -10z"/>
<path d="M996 1174 c-10 -26 -7 -54 7 -54 6 0 4 -5 -5 -11 -24 -14 -22 -27 5
-32 12 -3 4 -4 -18 -4 -38 2 -40 3 -40 35 0 29 -1 31 -12 15 -18 -23 -16 -58
2 -73 21 -18 68 -15 100 6 24 15 25 21 19 63 -4 25 -11 52 -16 59 -14 17 -35
15 -42 -4z"/>
<path d="M2987 1147 c-27 -21 -28 -25 -22 -82 3 -33 11 -64 17 -70 7 -7 9 10
4 58 l-7 69 33 -4 c26 -2 33 1 36 16 3 16 -12 35 -28 36 -3 0 -18 -10 -33 -23z"/>
<path d="M1915 1132 c-10 -11 17 -30 35 -25 13 3 20 0 20 -8 0 -10 3 -10 11
-2 19 19 3 42 -30 41 -17 -1 -33 -3 -36 -6z"/>
<path d="M711 1059 c-18 -16 -30 -33 -27 -36 4 -4 21 7 38 25 42 41 32 51 -11
11z"/>
<path d="M1940 1076 c0 -8 -3 -23 -6 -33 -5 -16 -4 -16 10 1 18 22 21 46 6 46
-5 0 -10 -6 -10 -14z"/>
<path d="M566 1065 c-7 -18 3 -25 36 -25 22 0 29 4 26 16 -4 21 -54 28 -62 9z"/>
<path d="M1015 1009 c-33 -32 -24 -39 14 -10 13 10 22 23 20 28 -2 6 -17 -3
-34 -18z"/>
<path d="M90 914 c-13 -34 -13 -34 10 -34 21 0 45 34 35 50 -11 19 -35 10 -45
-16z"/>
<path d="M1230 875 c-13 -14 -19 -25 -13 -25 5 0 20 11 33 25 13 14 19 25 13
25 -5 0 -20 -11 -33 -25z"/>
<path d="M3212 868 c-24 -17 -41 -32 -39 -35 7 -6 61 23 77 42 22 27 7 24 -38
-7z"/>
<path d="M822 867 c-12 -13 -22 -27 -22 -30 0 -13 39 13 50 33 15 27 -2 25
-28 -3z"/>
<path d="M1572 878 c-19 -19 -14 -29 8 -16 20 13 27 28 12 28 -4 0 -13 -5 -20
-12z"/>
<path d="M2687 872 c-10 -10 -17 -23 -17 -29 0 -6 -6 -16 -14 -22 -7 -6 -16
-24 -19 -39 -3 -15 -9 -36 -12 -47 -7 -20 -6 -20 9 -1 16 19 16 19 16 -6 0
-51 -24 -60 -178 -59 -112 0 -141 -2 -145 -13 -8 -21 107 -31 218 -19 50 5 97
6 106 2 9 -5 19 -5 23 -2 3 4 3 49 0 100 -6 81 -5 93 8 88 17 -7 53 39 43 55
-9 15 -20 12 -38 -8z"/>
<path d="M720 850 c-19 -16 -32 -31 -28 -35 3 -4 21 7 40 23 43 39 33 49 -12
12z"/>
<path d="M900 859 c-7 -11 -9 -27 -6 -34 3 -8 1 -15 -4 -17 -15 -5 -17 -73 -2
-70 6 1 12 -7 12 -18 0 -24 -37 -28 -46 -6 -9 23 -35 28 -55 10 -21 -19 -16
-36 6 -27 21 7 19 -4 -5 -29 -24 -26 -29 -16 -34 68 -5 85 -5 84 -16 84 -6 0
-8 -32 -5 -87 4 -73 9 -91 26 -105 12 -10 27 -18 34 -18 17 0 27 27 12 34 -20
8 14 26 51 26 40 0 56 32 46 96 -5 33 -2 47 10 59 20 20 21 55 1 55 -8 0 -19
-9 -25 -21z"/>
<path d="M2561 851 c-8 -14 -8 -22 1 -27 7 -5 -5 -22 -37 -51 -66 -59 -53 -63
17 -5 44 36 57 53 55 71 -3 31 -23 38 -36 12z"/>
<path d="M3094 856 c-3 -7 -4 -18 -2 -24 2 -6 -10 -22 -27 -36 -16 -13 -27
-27 -23 -31 4 -4 26 11 49 32 29 28 40 45 36 56 -8 20 -26 22 -33 3z"/>
<path d="M3645 831 c-76 -43 -143 -95 -134 -105 3 -3 14 2 25 12 10 10 51 37
91 61 60 36 106 71 92 71 -2 0 -35 -18 -74 -39z"/>
<path d="M2822 820 c-23 -21 -39 -41 -34 -44 9 -5 89 71 81 78 -2 2 -23 -13
-47 -34z"/>
<path d="M112 843 c-35 -7 -24 -38 13 -38 22 1 30 6 30 20 0 20 -9 24 -43 18z"/>
<path d="M1221 836 c-8 -10 -9 -16 -2 -21 13 -7 51 12 51 25 0 15 -36 12 -49
-4z"/>
<path d="M1494 825 c-3 -14 -3 -50 1 -80 10 -86 4 -95 -63 -94 -31 0 -77 6
-102 12 l-45 12 -11 60 c-13 71 -30 53 -19 -21 6 -41 4 -45 -12 -42 -13 2 -20
18 -28 56 -14 75 -27 53 -19 -34 6 -67 5 -73 -15 -84 -12 -6 -34 -10 -49 -8
-21 2 -27 8 -26 26 0 12 -3 22 -7 22 -9 0 -19 -26 -19 -50 0 -48 114 -34 126
16 4 15 11 20 24 17 10 -3 21 0 24 6 5 8 14 8 29 -1 26 -14 236 -15 282 -1 23
7 30 15 30 34 0 21 -5 24 -37 27 -36 3 -38 5 -39 40 -1 20 0 42 1 47 2 10 2
15 -2 50 -2 24 -17 17 -24 -10z"/>
<path d="M2963 824 c-18 -14 -33 -30 -33 -35 0 -13 57 30 64 48 7 17 6 17 -31
-13z"/>
<path d="M504 789 c-49 -28 -97 -58 -106 -67 -28 -24 -21 -35 10 -14 15 11 59
36 97 57 72 38 103 61 94 70 -3 2 -46 -18 -95 -46z"/>
<path d="M2706 823 c-3 -3 -6 -36 -6 -72 0 -78 15 -71 23 11 5 54 -1 77 -17
61z"/>
<path d="M787 806 c-6 -15 19 -43 29 -33 8 8 -5 47 -16 47 -4 0 -10 -6 -13
-14z"/>
<path d="M3796 813 c-8 -8 -6 -88 3 -128 6 -26 8 -27 14 -10 4 11 6 46 6 78
-1 54 -8 74 -23 60z"/>
<path d="M946 802 c-9 -15 4 -144 17 -159 5 -7 23 -13 38 -13 22 0 32 6 39 25
11 28 3 58 -14 52 -6 -2 -11 -11 -11 -20 0 -24 -13 -31 -30 -17 -10 8 -15 30
-15 64 0 53 -12 87 -24 68z"/>
<path d="M2877 804 c-4 -4 -7 -33 -7 -65 0 -54 -1 -58 -30 -68 -32 -11 -37
-20 -18 -39 9 -9 7 -12 -12 -12 -38 0 -53 14 -46 41 7 23 7 23 -8 5 -31 -39
-16 -76 31 -76 48 0 93 25 93 52 0 17 3 19 12 10 15 -15 50 -15 99 -1 49 15
61 40 15 32 -23 -3 -36 0 -46 13 -14 16 -13 17 13 10 24 -6 28 -4 25 10 -2 9
-13 21 -26 25 -15 6 -21 5 -17 -1 3 -6 2 -10 -4 -10 -6 0 -13 -11 -17 -25 -12
-47 -38 -24 -36 32 2 38 -11 77 -21 67z"/>
<path d="M3196 803 c-13 -13 -5 -39 15 -51 31 -20 23 -73 -13 -83 -20 -5 -28
-4 -28 5 0 7 -8 20 -18 29 -17 15 -20 14 -49 -18 -27 -29 -31 -40 -28 -77 2
-24 4 -47 5 -53 2 -30 20 27 20 64 0 40 2 43 23 36 77 -25 122 -11 158 50 l19
30 0 -36 c0 -64 20 -72 157 -66 65 3 159 6 210 6 107 0 113 5 113 95 0 59 -12
79 -29 47 -14 -25 -14 -74 -1 -66 6 3 10 -4 10 -16 0 -17 -5 -20 -25 -17 -14
3 -25 1 -25 -3 0 -14 -38 -10 -43 4 -4 10 -6 10 -6 0 -1 -15 -51 -18 -51 -3 0
7 -8 7 -22 -1 -33 -18 -201 -24 -238 -9 -28 12 -30 16 -30 64 0 66 -15 92 -29
53 -6 -16 -11 -36 -11 -46 0 -10 -7 -24 -15 -31 -13 -11 -15 -8 -15 13 0 48
-35 99 -54 80z"/>
<path d="M3631 787 c-24 -30 19 -53 47 -25 20 20 15 40 -7 28 -14 -7 -20 -7
-23 1 -2 7 -9 5 -17 -4z"/>
<path d="M150 776 c0 -10 -13 -31 -30 -46 -41 -38 -39 -57 8 -63 20 -2 57 -12
81 -21 59 -23 244 -31 346 -16 44 6 93 12 109 13 36 2 52 36 30 64 -13 17 -15
17 -39 -11 -22 -24 -37 -30 -103 -38 -130 -17 -346 5 -373 38 -7 8 -13 30 -13
49 -2 35 -16 63 -16 31z"/>
<path d="M1544 776 c-9 -24 12 -44 28 -28 10 10 8 16 -5 29 -15 15 -17 15 -23
-1z"/>
<path d="M1956 764 c-9 -8 -16 -22 -16 -29 0 -20 20 -29 33 -16 9 9 8 14 -2
21 -12 7 -12 11 -2 24 17 21 7 21 -13 0z"/>
<path d="M1933 682 c-9 -21 16 -40 27 -22 9 13 11 13 20 0 9 -13 11 -13 20 0
6 10 6 18 -1 25 -15 15 -60 13 -66 -3z"/>
<path d="M1955 631 c-3 -5 0 -13 6 -16 5 -4 8 -14 5 -24 -5 -12 -2 -11 9 3 8
11 15 26 15 33 0 15 -26 18 -35 4z"/>
<path d="M993 604 c-7 -19 18 -38 28 -22 9 14 0 38 -12 38 -5 0 -12 -7 -16
-16z"/>
<path d="M1020 555 c-13 -14 -21 -27 -18 -30 6 -6 48 33 48 45 0 15 -4 13 -30
-15z"/>
<path d="M1160 535 c-25 -26 -21 -32 9 -15 20 10 36 40 22 40 -4 0 -18 -11
-31 -25z"/>
<path d="M116 474 c-18 -17 -21 -50 -7 -59 13 -8 41 23 41 45 0 26 -16 33 -34
14z"/>
<path d="M936 414 c-10 -26 -7 -44 9 -44 14 0 35 29 35 49 0 17 -37 13 -44 -5z"/>
<path d="M3245 400 c-21 -16 -34 -30 -30 -30 14 0 64 34 69 47 7 18 3 17 -39
-17z"/>
<path d="M1527 384 c-31 -20 -57 -40 -57 -45 0 -13 5 -12 47 16 64 41 78 53
72 59 -3 3 -31 -10 -62 -30z"/>
<path d="M2702 399 c-10 -15 -10 -25 -3 -32 14 -14 41 9 41 34 0 25 -22 24
-38 -2z"/>
<path d="M745 380 c-38 -40 -26 -49 14 -10 17 17 31 33 31 36 0 12 -19 1 -45
-26z"/>
<path d="M1367 384 c-29 -19 -37 -31 -37 -55 0 -27 3 -30 27 -27 18 2 29 10
31 22 3 15 0 18 -17 13 -30 -7 -26 4 11 35 43 35 32 44 -15 12z"/>
<path d="M135 391 c-3 -6 -14 -10 -23 -9 -10 2 -17 -4 -17 -12 0 -18 52 -22
59 -5 6 18 -10 40 -19 26z"/>
<path d="M670 365 c-19 -19 -29 -35 -24 -35 11 0 45 34 58 58 12 21 1 14 -34
-23z"/>
<path d="M843 378 c-88 -41 -121 -106 -72 -137 18 -10 19 -15 8 -22 -8 -5 -24
-9 -36 -9 -12 0 -35 -11 -51 -25 -41 -35 -52 -31 -17 5 16 16 26 32 23 36 -10
10 -68 -55 -68 -76 0 -32 28 -36 50 -7 11 14 38 29 65 36 37 9 49 18 59 42
l12 30 39 -31 c22 -17 48 -30 59 -28 19 3 21 11 24 76 2 42 -1 72 -7 72 -14 0
-18 -9 -26 -54 -6 -28 -5 -37 4 -32 7 5 11 -1 11 -13 0 -27 -12 -27 -36 0 -23
26 -50 41 -89 49 l-30 6 45 32 c80 56 85 60 80 65 -3 3 -24 -4 -47 -15z"/>
<path d="M433 338 c-68 -56 -77 -78 -15 -34 44 30 101 86 86 85 -5 0 -37 -23
-71 -51z"/>
<path d="M2581 371 c-6 -11 -9 -26 -6 -33 3 -8 -11 -28 -35 -47 -62 -50 -40
-49 24 1 45 34 56 48 54 67 -4 31 -24 38 -37 12z"/>
<path d="M607 373 c-10 -16 4 -154 14 -147 10 6 10 98 0 134 -4 16 -10 21 -14
13z"/>
<path d="M2851 350 c-19 -16 -32 -32 -29 -36 4 -3 24 10 45 30 46 43 32 48
-16 6z"/>
<path d="M3316 365 c-3 -9 -6 -34 -6 -55 0 -23 -7 -45 -17 -56 -17 -17 -18
-16 -24 20 -7 41 -40 83 -58 72 -19 -12 -12 -41 12 -51 16 -7 23 -20 25 -47 2
-21 -1 -38 -7 -38 -22 0 -62 -21 -56 -29 8 -14 93 17 109 40 13 19 14 19 20
-6 4 -15 17 -30 32 -35 35 -14 168 -12 198 1 20 9 29 9 40 0 8 -7 23 -10 33
-7 10 3 43 8 73 11 30 3 58 11 62 18 13 21 10 139 -4 135 -15 -5 -41 -88 -28
-88 4 0 11 6 13 13 3 6 6 -1 6 -17 1 -25 -2 -27 -23 -22 -15 4 -26 1 -29 -7
-3 -9 -9 -9 -23 -1 -14 8 -24 8 -37 0 -12 -8 -22 -8 -36 1 -14 9 -21 9 -30 0
-15 -15 -196 -16 -211 -1 -5 5 -10 39 -11 76 -2 70 -11 102 -23 73z"/>
<path d="M3605 354 c-38 -23 -39 -28 -3 -25 12 2 15 -4 11 -19 -4 -16 -1 -20
20 -20 16 0 31 8 37 21 15 26 7 34 -19 19 -28 -14 -25 7 4 32 30 26 -1 21 -50
-8z"/>
<path d="M2990 344 c-33 -29 -34 -42 -1 -25 18 10 48 51 37 51 -2 0 -19 -12
-36 -26z"/>
<path d="M3099 353 c-12 -14 -12 -17 0 -21 10 -3 4 -13 -20 -33 -19 -16 -29
-29 -24 -29 20 0 85 62 85 81 0 23 -23 25 -41 2z"/>
<path d="M3792 280 c2 -44 6 -80 10 -80 14 0 20 43 13 101 -10 88 -27 73 -23
-21z"/>
<path d="M2646 318 c-20 -47 -21 -68 -1 -42 14 18 14 17 15 -12 0 -27 -6 -34
-36 -49 -29 -14 -58 -16 -153 -14 -112 4 -141 -1 -141 -23 0 -6 52 -9 153 -7
83 2 158 0 165 -5 7 -4 19 -2 27 4 12 10 14 28 9 84 -9 96 -18 112 -38 64z"/>
<path d="M2717 343 c-5 -7 -5 -40 -1 -74 7 -64 24 -64 23 1 -1 50 -13 88 -22
73z"/>
<path d="M984 327 c-3 -8 -4 -43 -2 -78 3 -64 3 -64 33 -64 36 0 65 46 45 70
-17 21 -31 8 -24 -22 6 -21 4 -24 -12 -21 -16 3 -19 12 -16 60 3 53 -11 87
-24 55z"/>
<path d="M2900 285 c0 -50 -2 -56 -30 -70 -31 -16 -39 -40 -17 -48 6 -3 -2 -6
-19 -6 -38 -1 -55 17 -47 50 5 23 5 24 -10 4 -24 -29 -21 -62 7 -80 21 -14 31
-14 66 -4 41 12 67 40 55 59 -3 5 7 2 23 -7 26 -15 33 -15 67 -2 45 17 62 44
21 33 -16 -4 -32 -1 -41 6 -18 15 -9 34 12 26 10 -4 13 0 11 12 -5 25 -41 21
-53 -5 -16 -38 -25 -26 -25 32 0 30 -4 55 -10 55 -5 0 -10 -25 -10 -55z"/>
<path d="M128 314 c-5 -4 -8 -13 -8 -20 0 -7 -11 -30 -25 -50 -14 -20 -25 -41
-25 -45 0 -13 38 -11 45 1 5 8 11 8 19 1 34 -29 301 -30 354 -2 10 6 32 9 48
8 25 -2 29 2 32 27 5 44 -15 56 -42 25 -13 -15 -40 -32 -61 -39 -49 -16 -286
-10 -308 9 -9 7 -17 31 -19 53 -2 22 -6 36 -10 32z"/>
<path d="M1463 293 c-8 -19 7 -34 28 -28 11 4 19 2 19 -4 0 -6 5 -11 11 -11 6
0 9 12 7 28 -2 22 -8 27 -32 27 -15 1 -30 -5 -33 -12z"/>
<path d="M1940 253 c-40 -27 -49 -45 -43 -92 5 -43 6 -45 45 -68 l33 -19 42
26 c23 15 39 30 35 34 -10 11 -11 69 -2 81 6 7 -7 20 -33 36 l-43 26 -34 -24z
m76 -37 c19 -20 18 -72 -2 -80 -24 -9 -63 -7 -85 4 -29 16 -25 58 7 70 14 6
30 8 35 4 5 -3 9 0 9 5 0 15 19 14 36 -3z"/>
<path d="M3123 236 c-13 -13 -23 -29 -23 -36 0 -7 -17 -28 -37 -46 -21 -18
-32 -33 -26 -34 7 0 30 16 51 35 27 24 45 32 59 29 24 -7 39 23 28 56 -8 26
-25 25 -52 -4z"/>
<path d="M1584 235 c-3 -8 -3 -19 1 -25 4 -6 -17 -10 -62 -10 -58 0 -71 3 -87
22 l-19 22 -18 -23 c-25 -30 -24 -51 2 -51 29 0 14 -18 -24 -28 -26 -7 -35 -5
-49 12 l-17 21 -1 -21 c0 -47 65 -61 103 -21 18 19 36 25 97 31 80 7 100 19
100 63 0 25 -17 31 -26 8z"/>
<path d="M1220 226 c-17 -17 -11 -26 17 -26 25 0 25 -1 10 -18 -9 -10 -20 -33
-23 -51 -4 -18 -13 -35 -20 -38 -8 -3 -14 -12 -14 -21 0 -12 3 -13 11 -5 9 9
19 6 39 -9 22 -16 36 -19 64 -14 49 9 55 26 9 26 -47 0 -66 11 -57 34 5 13 9
14 20 5 11 -9 15 -7 20 6 11 28 -12 41 -36 20 -19 -18 -20 -18 -20 2 0 23 24
47 63 62 15 6 27 16 27 23 0 16 -94 20 -110 4z"/>
<path d="M1014 149 c-10 -17 13 -36 27 -22 12 12 4 33 -11 33 -5 0 -12 -5 -16
-11z"/>
<path d="M1040 115 c-19 -19 -30 -35 -24 -35 13 0 64 48 64 60 0 15 -3 13 -40
-25z"/>
</g>
</svg>
